<svg width="14" height="25" viewBox="0 0 14 25" fill="none" xmlns="http://www.w3.org/2000/svg">
<path d="M4 8C4 9.17782 3.37072 10.0733 2.83023 11.1398C2.4331 11.9234 1.90887 12.636 1.61094 13.4576C1.23979 14.4811 1.37403 15.5303 1.15913 16.5591C0.800401 18.2765 1.15134 20.0476 1.21483 21.7634C1.2319 22.2246 1.27663 22.8146 1.4624 23.2449C1.72021 23.8421 2.28885 23.8176 2.99734 24" stroke="white" stroke-linecap="round" stroke-linejoin="round"/>
<path d="M11 8C11 8.47608 10.9954 9.18808 11.1364 9.64835C11.3229 10.2572 11.7214 10.8288 12.0908 11.3608C12.5436 12.0128 12.6753 12.9017 12.818 13.6456C12.9919 14.552 12.9998 15.4433 12.9998 16.3654C12.9998 16.9017 13.0072 17.4229 12.9291 17.9542C12.8609 18.4181 12.9976 18.9172 12.8887 19.3736C12.8096 19.7056 12.8592 20.0228 12.813 20.3581C12.774 20.6404 12.6362 20.9382 12.6362 21.228C12.6362 21.8168 12.2991 23 11.4545 23" stroke="white" stroke-linecap="round" stroke-linejoin="round"/>
<path d="M2 23.598C2.71978 23.598 3.38009 23.8593 4.08656 23.9501C5.32289 24.1091 6.58442 23.8372 7.81395 23.8372C8.60258 23.8372 9.35715 23.598 10.1395 23.598C10.8269 23.598 11.3503 23.1671 12 23" stroke="white" stroke-linecap="round" stroke-linejoin="round"/>
<path d="M11 8C10.9331 8 7.61265 8 7.04098 8C6.42592 8 5.80015 8 5.20492 8C4.87422 8 4.16459 8 4 8" stroke="white" stroke-linecap="round" stroke-linejoin="round"/>
<path d="M6.3733 14.7686C6.22198 14.7513 5.94175 14.4442 5.80343 14.3555C5.4935 14.1567 4.88712 13.9175 4.50713 14.0916C4.01649 14.3163 3.95246 15.0768 4.02493 15.4973C4.16175 16.2912 4.94345 17.0719 5.49658 17.6604C5.70373 17.8808 6.51179 19.1749 6.93691 18.9801C7.17911 18.8692 7.32357 18.5455 7.51304 18.3719C8.07704 17.8552 8.50722 17.1828 8.95963 16.5817C9.81485 15.4455 11.0342 12.7507 8.40229 13.0186C7.49383 13.1111 6.71146 14.5346 6.71146 15.285" stroke="white" stroke-linecap="round" stroke-linejoin="round"/>
<path d="M9.57441 1.18218C7.92046 1.18218 7.21701 4.8631 9.23193 4.9977C11.0572 5.11962 12.0422 0.359142 9.2942 1.07299" stroke="white" stroke-linecap="round" stroke-linejoin="round"/>
</svg>
