<svg width="283" height="27" viewBox="0 0 283 27" fill="none" xmlns="http://www.w3.org/2000/svg">
<path fill-rule="evenodd" clip-rule="evenodd" d="M10.798 5.52098C11.0435 5.29049 11.2568 5.09727 11.4524 4.92016C11.6479 4.74304 11.8257 4.58203 12.0001 4.41594C12.3139 4.1079 12.6252 3.79624 12.936 3.48516C13.3608 3.05996 13.7846 2.63583 14.212 2.22347C14.5411 1.90608 14.8912 1.60661 15.2403 1.30803L15.2403 1.30802C15.4802 1.10283 15.7196 0.898066 15.9514 0.688198C16.4612 0.217411 17.0686 0.285566 17.7545 0.600964C18.6636 1.01975 18.9739 1.42074 18.7769 2.27748C18.3258 4.22639 17.8559 6.18511 17.2769 8.07709C16.9023 9.30591 16.5002 10.5259 16.0967 11.75L16.0967 11.7502L16.0967 11.7503L16.0967 11.7503L16.0966 11.7503C15.6225 13.1888 15.1465 14.633 14.7111 16.1041C14.837 15.97 14.9629 15.836 15.0751 15.6817C15.4842 15.1116 15.8863 14.5356 16.2887 13.9592L16.2888 13.959L16.2888 13.959L16.2888 13.9589L16.2889 13.9589L16.2889 13.9588L16.2889 13.9588L16.289 13.9587L16.289 13.9587C17.0603 12.8536 17.8328 11.7469 18.6583 10.6778C20.5365 8.27461 22.4847 5.93088 24.4301 3.5906L24.4302 3.59056L24.4302 3.59051L24.4303 3.59046L24.4303 3.59041L24.4303 3.59036L24.4304 3.59031L24.4305 3.59019L24.4311 3.58945C24.6922 3.27533 24.9533 2.96128 25.2141 2.64715C25.5618 2.2195 25.9885 1.83306 26.4264 1.48194C27.2568 0.844446 28.467 1.31235 28.8607 2.43803C29.0338 2.93775 29.1289 3.49174 29.1125 3.99403C29.0903 4.94377 29.0357 5.8892 28.9811 6.83316L28.9811 6.83325L28.9811 6.83344L28.9811 6.83362C28.9479 7.40737 28.9148 7.98058 28.889 8.55388C28.8831 8.6296 28.8742 8.70694 28.8638 8.79614V8.79616L28.8638 8.79619L28.8638 8.79624L28.8638 8.7963C28.8488 8.92591 28.8308 9.08056 28.8154 9.29162C28.9085 9.2232 28.9927 9.16669 29.0683 9.116C29.2 9.02767 29.3053 8.95703 29.3853 8.87186C30.4936 7.60983 31.6019 6.34779 32.7077 5.10081C33.112 4.64373 33.5203 4.18796 33.9287 3.7322C34.3371 3.27643 34.7454 2.82066 35.1497 2.36359C35.5111 1.95621 35.9536 1.78102 36.6058 1.99046C36.8667 2.07423 37.1996 2.03834 37.4233 1.93571C39.3052 1.08066 42.087 2.11662 43.6864 3.53426C44.2524 4.04911 44.5733 4.69145 44.7347 5.36187C45.0325 6.64711 44.9226 7.80144 44.2042 8.79214C42.901 10.5944 41.0273 11.7058 38.8708 12.4568C38.7426 12.5029 38.6103 12.5476 38.4781 12.5924C38.3458 12.6372 38.2135 12.6819 38.0853 12.728C38.0709 12.7355 38.055 12.7518 38.011 12.7969L38.0109 12.797L38.0108 12.7971L38.0107 12.7972L38.0106 12.7973L37.962 12.847C38.1481 13.1405 38.3279 13.4381 38.5083 13.7366C39.0379 14.6129 39.5718 15.4965 40.2814 16.3041C40.8433 16.9445 41.1695 17.0493 41.7669 16.6701C42.3668 16.2758 42.9582 15.8312 43.3966 15.2741C44.9868 13.1992 46.2249 10.8685 47.1608 8.3932C48.0724 6.01224 48.9421 3.60339 49.8075 1.20621L49.9374 0.846301C50.1032 0.37609 50.2965 -0.0535675 50.9743 0.00544841C51.7525 0.0808377 52.4914 0.286372 53.0508 0.941838C53.1935 1.11453 53.2214 1.4566 53.1831 1.68223C52.9265 3.29553 52.6537 4.9036 52.3808 6.51166L52.3801 6.516L52.1759 7.71937C52.292 7.66429 52.3985 7.62045 52.4956 7.58049C52.6485 7.51755 52.7779 7.46425 52.8849 7.39186C54.4248 6.22083 55.9648 5.04981 57.4885 3.87355C57.6864 3.72033 57.8829 3.56486 58.0793 3.40938L58.0794 3.4093L58.0794 3.40927C58.4722 3.09838 58.865 2.78748 59.2701 2.49461C59.6411 2.23308 60.0983 2.17366 60.5962 2.3811C61.143 2.60425 61.3416 2.95355 61.157 3.43356C61.0545 3.73374 60.8842 4.02802 60.7027 4.28698C59.1522 6.53322 57.0698 8.16456 54.4367 9.1908C54.3072 9.2421 54.1711 9.29677 54.0584 9.34206C53.9787 9.37409 53.9107 9.40143 53.8648 9.41957C54.0963 9.93011 54.3209 10.4305 54.5424 10.924L54.5425 10.9241L54.5432 10.9256C54.7644 11.4184 54.9825 11.9044 55.2013 12.3866C55.2635 12.5226 55.3243 12.6609 55.3854 12.7999L55.3855 12.8L55.3855 12.8001C55.5833 13.2495 55.784 13.7059 56.0427 14.116C56.599 14.9925 57.1346 15.1804 57.9405 14.7888C58.4282 14.5489 58.8748 14.2481 59.2938 13.9068C60.2929 13.0856 61.0516 12.0602 61.7063 10.938C63.4333 7.9554 65.144 4.96752 66.8573 1.96459C67.0781 1.57549 67.336 1.3728 67.8594 1.42982C68.1637 1.46781 68.4688 1.44313 68.779 1.41805C68.8808 1.40982 68.9831 1.40155 69.0861 1.39543C70.161 1.344 71.2358 1.29258 72.3244 1.26143C72.8185 1.24637 73.3126 1.23079 73.8069 1.21521L73.807 1.2152L73.8071 1.2152L73.8071 1.2152L73.8072 1.21519L73.8073 1.21519L73.8074 1.21519L73.8079 1.21517C75.9762 1.1468 78.1468 1.07837 80.3213 1.05329C82.0276 1.03013 83.74 1.07238 85.4636 1.14994C86.3009 1.18087 86.7371 1.44781 87.3633 2.01369C87.3044 2.04853 87.2497 2.08771 87.1965 2.12577C87.0771 2.21128 86.9656 2.29112 86.8327 2.30331C85.9321 2.44241 85.0178 2.56124 84.0922 2.64475C83.5918 2.68758 83.0865 2.70172 82.5416 2.71697C82.3645 2.72193 82.1832 2.72701 81.9965 2.73322C82.3448 3.74654 82.1016 4.58329 81.8614 5.40989C81.8396 5.48501 81.8178 5.56004 81.7964 5.63512C81.3661 7.15959 80.9323 8.67901 80.4985 10.1984L80.4966 10.2053C80.062 11.7276 79.6273 13.2499 79.1962 14.7772C78.8615 15.9387 78.3388 16.9922 77.6281 17.9378C77.5374 18.0673 77.4303 18.1915 77.3095 18.2955C76.9445 18.6224 76.4461 18.621 75.9232 18.358C75.433 18.1054 75.3236 17.7372 75.3272 17.3101C75.3185 15.9432 75.4101 14.5926 75.7463 13.3206C76.4871 10.5764 77.3884 7.89969 78.5593 5.35708C78.7909 4.85351 79.0507 4.3707 79.3231 3.86454L79.3233 3.8643L79.3235 3.86392L79.3238 3.86338L79.3242 3.86259L79.3248 3.86145L79.326 3.85914C79.5013 3.53349 79.6817 3.19813 79.8631 2.84131C78.0923 2.80314 76.3643 2.87645 74.6512 2.94914C72.9833 3.01991 71.3295 3.09008 69.6641 3.05615C69.308 4.24248 68.9545 5.41376 68.601 6.58505C68.2475 7.75634 67.8939 8.92764 67.5379 10.114C67.9538 10.1833 68.3763 10.1884 68.8048 10.1936C69.8582 10.2063 70.9482 10.2195 72.0673 11.1876C70.34 11.5371 68.7738 11.748 66.983 11.4585L66.9619 11.5151L66.9619 11.5153C66.2101 13.5365 65.4628 15.5454 64.9441 17.7989C65.0091 17.7998 65.0702 17.8008 65.1281 17.8017C65.3458 17.8053 65.519 17.8082 65.6836 17.7984C66.9343 17.7242 68.1876 17.6348 69.4245 17.5403C69.8765 17.5109 70.3133 17.5719 70.6984 18.1397C70.6093 18.1995 70.5248 18.2643 70.4419 18.328C70.2721 18.4583 70.1085 18.5837 69.9236 18.6522C68.4068 19.1804 66.7753 19.3703 65.0818 19.3183C64.4315 19.2998 63.7079 19.004 63.0521 18.7141C62.1267 18.2901 61.842 17.7387 61.9599 16.8407C61.9868 16.6216 62.0303 16.4135 62.074 16.2044L62.0741 16.2043L62.0741 16.2043L62.0741 16.2042L62.0741 16.2041L62.0741 16.2041L62.0741 16.204L62.0741 16.2039L62.0741 16.2039L62.0742 16.2039L62.0742 16.2038L62.0742 16.2038L62.0742 16.2037L62.0742 16.2037L62.0742 16.2037C62.1035 16.0634 62.1329 15.9228 62.1575 15.778L62.354 14.6197C62.0396 14.8518 61.8409 15.01 61.6421 15.1681L61.6419 15.1683C59.5177 16.9448 56.5501 16.8009 53.8964 14.8068C52.9354 14.0859 52.3002 13.1681 51.9478 12.1033L51.9046 11.9727L51.9046 11.9726C51.7611 11.5372 51.6175 11.1018 51.3392 10.6231C51.2935 10.7908 51.2444 10.9535 51.1953 11.1162C51.1462 11.2789 51.0972 11.4415 51.0515 11.6093C50.9289 12.0494 50.8109 12.491 50.6929 12.9323L50.6929 12.9325L50.6928 12.9326L50.6928 12.9328L50.6927 12.933L50.6927 12.9332L50.6926 12.9334L50.6926 12.9335L50.6926 12.9336C50.2174 14.7111 49.7432 16.4848 48.9795 18.1452C48.7648 18.5997 48.5011 19.0385 48.2238 19.457C47.848 20.0502 46.5653 19.9079 45.908 19.2211C45.7328 19.0379 45.6457 18.7403 45.6024 18.4885C45.5609 18.2665 45.5569 18.0428 45.5523 17.7825C45.5498 17.6472 45.5472 17.502 45.5391 17.3419C45.2134 17.5387 44.9657 17.6812 44.718 17.8237L44.7179 17.8238C43.7545 18.4344 42.648 18.5709 41.3796 18.2429C39.2719 17.6931 37.5083 16.6351 36.2857 14.7198C36.0695 14.375 35.817 14.0491 35.5467 13.7003L35.5466 13.7002L35.5464 13.7C35.4276 13.5466 35.3053 13.3889 35.1812 13.2231C34.7477 14.2577 34.3331 15.2825 33.9185 16.3073C33.7889 16.6257 33.6673 16.951 33.5457 17.2767L33.5456 17.2769C33.335 17.8405 33.1241 18.4051 32.8704 18.9369C32.6215 19.4914 32.2911 20.0198 31.9169 20.5024C31.4948 21.0648 30.9372 21.1078 30.1097 20.7152C29.1705 20.2709 28.8929 19.8804 28.8951 19.0563C28.8824 18.0426 29.2338 17.1675 29.584 16.2957C29.6574 16.1129 29.7308 15.9303 29.8007 15.7465C30.1407 14.8928 30.5008 14.0508 30.8612 13.2081L30.8612 13.2081L30.8612 13.208L30.8613 13.2079L30.8613 13.2079L30.8613 13.2078L30.8613 13.2077L30.8614 13.2076L30.8616 13.2072L30.8616 13.2071L30.8616 13.2071L30.8616 13.2071L30.8616 13.2071L30.8616 13.207L30.8616 13.207C31.1364 12.5646 31.4113 11.9218 31.6775 11.2733C31.7621 11.0784 31.8142 10.8731 31.7572 10.601C31.6646 10.6903 31.5687 10.7744 31.4727 10.8586C31.3768 10.9428 31.2808 11.027 31.1883 11.1162C30.3838 11.9048 29.5356 12.6476 28.4183 13.0502C28.0023 13.1945 27.9122 13.5164 27.8171 13.8565L27.8171 13.8565C27.8036 13.9047 27.79 13.9533 27.7754 14.0017C27.6149 14.5423 27.458 15.0841 27.3011 15.6259C26.9873 16.7095 26.6735 17.7931 26.3307 18.8674C25.9557 20.0635 25.3314 20.1961 24.0641 19.4562C23.1892 18.9373 22.9966 18.6534 23.1936 17.7967C23.5013 16.3886 23.3509 14.9445 23.0134 13.4879L22.6054 13.3286L22.6054 13.3286C21.8336 13.027 21.0864 12.7352 20.3019 12.4428C20.2832 12.4608 20.2596 12.4801 20.2338 12.5012L20.2338 12.5012C20.1744 12.5498 20.1035 12.6078 20.0552 12.6808C19.6553 13.2133 19.2573 13.7463 18.8592 14.2794L18.8591 14.2795L18.859 14.2797L18.8589 14.2798L18.8588 14.2799L18.8587 14.28L18.8586 14.2802L18.8585 14.2803C18.0626 15.3462 17.2666 16.4121 16.4562 17.4734C15.9476 18.1358 15.4033 18.7868 14.8656 19.43L14.8656 19.43C14.7732 19.5405 14.681 19.6507 14.5892 19.7608C14.2655 20.1485 13.8333 20.2635 13.2763 20.1006C12.9476 20.0109 12.6215 19.9062 12.303 19.7563C11.1243 19.2034 10.6032 18.3223 10.8436 17.2098C11.0916 16.0523 11.4049 14.9156 11.7482 13.8045C12.1072 12.651 12.4751 11.4964 12.843 10.3417L12.8431 10.3413C13.211 9.18655 13.5789 8.03178 13.938 6.87815C13.9799 6.73297 13.9891 6.57731 13.8755 6.33463C13.5747 6.58702 13.274 6.83941 12.9895 7.09704C12.8493 7.21946 12.7081 7.34031 12.567 7.46102L12.567 7.46105L12.5669 7.46115L12.5668 7.46117L12.5668 7.46119L12.5668 7.4612L12.5668 7.46122L12.5668 7.46122L12.5668 7.46124L12.5668 7.46124C12.2001 7.775 11.8345 8.08775 11.4918 8.42438C10.5451 9.34177 9.45002 9.00601 8.37134 8.16795C8.25057 8.07169 8.13248 7.95962 7.99748 7.83149L7.99746 7.83147L7.99742 7.83144L7.9974 7.83142L7.99738 7.8314L7.99736 7.83138L7.99712 7.83116L7.99708 7.83111C7.94595 7.78259 7.89239 7.73176 7.83534 7.67862C7.69721 8.01941 7.56299 8.35685 7.43006 8.69105C7.13597 9.4304 6.84818 10.1539 6.5384 10.8628C5.39093 13.5715 4.2297 16.26 3.04962 18.9583C2.85379 19.403 2.59528 19.8117 2.30671 20.1949C1.90598 20.7324 1.48908 20.7572 0.775684 20.4012C0.141267 20.0865 -0.0650512 19.7823 0.017198 19.0949C0.110649 18.4429 0.255575 17.7915 0.479483 17.1813C2.0908 12.4485 4.06442 7.91125 6.3076 3.50817C6.71909 2.7045 7.1795 1.91654 7.6399 1.12858L7.63991 1.12857L7.63998 1.12845C7.76236 0.913953 7.89849 0.719737 8.04837 0.545798C8.51689 0.0141763 9.14067 0.0875688 9.58691 0.801872C9.92567 1.33891 10.1625 1.9701 10.3203 2.56008C10.4369 2.9913 10.4788 3.42872 10.5206 3.86507C10.5394 4.06145 10.5582 4.25762 10.5837 4.4529C10.7085 4.73089 10.7441 5.02783 10.798 5.52098ZM36.1305 10.4666C36.1462 10.483 36.1616 10.5014 36.1776 10.5206C36.2063 10.5548 36.2371 10.5915 36.2757 10.6243C36.7283 10.3889 37.1809 10.1536 37.6473 9.93849C39.0516 9.26319 40.1491 8.26735 41.0551 7.0831C41.6725 6.28205 41.7569 5.27813 41.5401 4.22509C41.3431 3.25774 40.6287 2.80629 39.7378 3.09125C39.4001 3.20086 39.0848 3.3701 38.7683 3.53994C38.6244 3.61721 38.4802 3.69459 38.3335 3.76655C37.9212 3.96724 37.708 4.31121 37.6452 4.78275C37.5355 5.42957 37.3905 6.08095 37.2155 6.70682C36.8986 7.84053 36.5682 8.96995 36.2347 10.1101L36.2347 10.1103L36.2346 10.1105L36.1305 10.4666ZM23.2521 10.6774L23.2522 10.6776L23.2524 10.6777C23.5467 10.9443 23.8305 11.2015 24.1138 11.4619C24.4857 11.8034 24.762 11.797 24.945 11.4275C25.0006 11.3026 25.0399 11.1724 25.0629 11.037C25.2786 10.0178 25.4937 9.00234 25.7087 7.98688L25.7133 7.96545C25.9292 6.94594 26.1451 5.92643 26.3617 4.90316C26.3763 4.81697 26.3777 4.72654 26.3792 4.63203C26.38 4.5781 26.3809 4.52284 26.3842 4.46628C26.3598 4.45843 26.3359 4.44681 26.3121 4.4352C26.2883 4.42358 26.2645 4.41197 26.24 4.40411C25.2923 5.62964 24.3525 6.85768 23.4159 8.08147C23.0026 8.62141 22.59 9.16053 22.1777 9.69824C22.5596 10.05 22.9124 10.3697 23.2514 10.6768L23.2518 10.6771L23.2521 10.6774ZM22.5099 11.6925C22.2779 11.4598 22.1254 11.3184 21.9612 11.1661L21.8587 11.071C21.7505 11.6073 21.7505 11.6073 22.5099 11.6925ZM169.029 2.03595C167.987 2.83044 167.588 3.89254 167.502 5.13363C167.377 7.02797 167.958 8.90897 168.749 10.8724C168.795 10.8486 168.837 10.8273 168.877 10.8075C168.984 10.7534 169.069 10.7108 169.128 10.6599C172.216 7.88385 174.899 4.75703 177.433 1.48801C177.699 1.12854 178.025 1.02608 178.465 1.16606C178.792 1.26975 179.11 1.41861 179.405 1.60748C179.995 1.9852 180.154 2.27331 180.019 2.8804C179.731 4.2 179.411 5.50923 179.077 6.79822C178.832 7.74105 178.581 8.68222 178.33 9.62339L178.329 9.62682C177.953 11.0376 177.577 12.4484 177.219 13.8648C177.072 14.4366 177.054 15.0649 177.14 15.7898C177.186 15.7571 177.236 15.7268 177.285 15.6966C177.4 15.6256 177.514 15.5552 177.59 15.4572C177.781 15.202 177.974 14.9483 178.167 14.6947L178.168 14.6934L178.17 14.6911L178.172 14.6882L178.172 14.6878C178.8 13.8623 179.426 13.0389 179.989 12.1768C180.56 11.301 181.106 10.4098 181.651 9.51925L181.652 9.51901C182.889 7.49855 184.125 5.48133 185.644 3.65333C186.563 2.56604 187.551 1.57997 188.778 0.812393C189.889 0.119129 191.151 0.171454 192.492 0.787659C193.178 1.10095 193.81 1.5394 193.99 2.42103C193.027 2.36691 192.597 2.98103 192.173 3.58573L192.163 3.60017C190.715 5.59748 189.783 7.90141 188.885 10.2157C188.377 11.5131 188.115 12.8882 188.195 14.3723C188.195 14.4364 188.206 14.499 188.221 14.5855C188.232 14.648 188.246 14.7231 188.259 14.8204C188.765 14.592 189.052 14.2285 189.328 13.8793C189.356 13.8445 189.383 13.8099 189.411 13.7755C190.348 12.5247 191.269 11.2611 192.192 9.99567L192.196 9.9906L192.198 9.98808L192.2 9.98556C192.578 9.46651 192.957 8.94714 193.337 8.42822L194.198 7.27501C194.535 6.79556 195.03 6.71482 195.661 6.94713C195.714 6.96731 195.768 6.98707 195.823 7.00697C196.033 7.08376 196.249 7.16275 196.448 7.27646C197.392 7.79836 197.682 8.22349 197.544 9.16239C197.364 10.4529 197.133 11.7428 196.856 13.0022C196.568 14.3218 196.248 15.631 195.849 16.8993C195.665 17.4908 195.32 18.0154 194.964 18.5048C194.613 18.964 194.08 18.9689 193.361 18.6453C192.642 18.3216 192.311 17.9313 192.283 17.2724C192.263 16.938 192.26 16.6092 192.256 16.2293V16.2287C192.255 16.0943 192.254 15.9536 192.252 15.8039C192.097 15.9281 191.955 16.0393 191.821 16.1439L191.821 16.1445C191.613 16.3075 191.425 16.4544 191.243 16.6087C189.033 18.5384 185.117 16.0573 184.703 13.7857C184.583 13.1611 184.464 12.5365 184.329 11.7961C184.26 11.8856 184.197 11.9621 184.139 12.0317C184.048 12.1406 183.972 12.2325 183.914 12.3301C183.651 12.7314 183.397 13.1397 183.142 13.5482L183.141 13.549L183.141 13.5493L183.141 13.5496C182.705 14.2494 182.268 14.95 181.789 15.6181C181.191 16.4269 180.5 17.1745 179.782 17.8816C179.042 18.6136 178.11 18.9516 176.864 18.4922C175.506 17.9814 174.401 17.1864 173.819 15.8283C173.36 14.763 173.261 13.7012 173.401 12.6517C173.459 12.2337 173.53 11.8266 173.606 11.3922L173.606 11.3914C173.646 11.1633 173.687 10.9276 173.728 10.6788C173.655 10.7339 173.587 10.7821 173.523 10.8272L173.523 10.8273C173.431 10.8919 173.349 10.9498 173.278 11.0114C172.985 11.2669 172.694 11.524 172.402 11.7813L172.402 11.7814L172.402 11.7818L172.4 11.7828L172.398 11.785L172.394 11.7887L172.393 11.7892C171.627 12.4655 170.859 13.1428 170.068 13.7963C169.749 14.0597 169.618 14.335 169.648 14.7727C169.75 16.2318 169.46 17.5664 168.988 18.8591C168.576 19.9965 167.749 20.6372 166.448 20.7152C165.266 20.7994 164.104 20.7632 162.938 20.0279C162.192 19.5532 161.81 18.9562 161.772 18.1514C161.719 17.1202 162.065 16.2788 162.768 15.662C163.445 15.1004 164.153 14.5641 164.918 14.0938C165.435 13.7669 165.687 13.3872 165.521 12.732C165.417 12.3278 165.321 11.921 165.225 11.5135L165.225 11.513L165.224 11.5126L165.224 11.5121L165.224 11.5117C165.02 10.6495 164.815 9.78389 164.537 8.93148C164.044 7.34797 163.602 5.76495 163.658 4.18169C163.697 2.90999 164.104 1.80271 164.939 0.910706C165.691 0.103385 166.706 -0.113146 167.924 0.210257C168.861 0.460585 169.781 0.816331 170.506 1.52216C170.876 1.87767 171.156 2.36304 171.374 2.81262C171.463 2.99951 171.368 3.36564 171.215 3.45971C171.062 3.55377 170.679 3.47971 170.477 3.35207C170.227 3.19148 170.004 2.97999 169.785 2.77255L169.785 2.77221L169.785 2.77203L169.785 2.77192L169.785 2.7718C169.705 2.696 169.625 2.62075 169.545 2.54872C169.45 2.44593 169.36 2.35822 169.243 2.24456L169.242 2.24436L169.239 2.24104C169.178 2.18171 169.109 2.11527 169.029 2.03595ZM164.18 19.0594C165.098 18.7012 165.277 17.9336 165.465 17.0103C164.37 17.5026 164.041 18.0324 164.18 19.0594ZM98.9227 8.76132L98.9228 8.76071L98.923 8.75986L98.9232 8.75925L98.9232 8.75888L98.9233 8.75863L98.9233 8.7585C98.9733 8.53481 99.0232 8.3116 99.074 8.08969C99.1079 8.09264 99.1411 8.09936 99.1744 8.10607C99.2076 8.11278 99.2409 8.11949 99.2748 8.12244C99.4005 8.55931 99.5197 8.9961 99.6388 9.432L99.6388 9.43212C99.8579 10.2342 100.076 11.0333 100.332 11.8245C100.964 13.7723 101.632 15.7156 102.335 17.6543C102.842 19.0227 104.055 19.4755 105.389 19.6184C105.928 19.6807 106.24 19.4636 106.392 18.9731C106.775 17.7319 107.176 16.4808 107.592 15.25C108.126 13.6693 108.669 12.0913 109.212 10.5133L109.212 10.5131L109.212 10.5129L109.212 10.5127L109.212 10.5126L109.212 10.5124L109.212 10.5122L109.212 10.5121L109.213 10.5119L109.213 10.5117L109.213 10.5115L109.213 10.5114L109.213 10.5112C109.756 8.93315 110.298 7.35511 110.833 5.77446C111.051 5.09889 111.22 4.40762 111.34 3.70064C111.378 3.475 111.255 3.08648 111.08 2.90331C110.51 2.30801 109.453 2.25414 109.031 2.81652C108.702 3.23437 108.401 3.69278 108.197 4.1826C107.371 6.16547 106.572 8.15717 105.773 10.1489C105.506 10.813 105.24 11.477 104.972 12.1408L104.711 12.7706C104.455 12.4612 104.361 12.1781 104.27 11.9048C104.259 11.873 104.248 11.8413 104.238 11.8097C103.259 8.86239 102.137 5.94843 100.696 3.09064C100.614 2.91377 100.555 2.73215 100.496 2.55054L100.495 2.55037L100.495 2.55019C100.436 2.36858 100.377 2.18697 100.295 2.01009C100.184 1.75238 100.029 1.44887 99.7997 1.28008C99.5102 1.06026 99.1214 0.919555 98.779 0.8096C97.8444 0.541237 97.5666 0.658245 97.1678 1.38675C96.5555 2.49592 95.945 3.60566 95.3345 4.71542L95.3344 4.71562L95.3343 4.71572C94.1131 6.93557 92.8919 9.15542 91.6562 11.3706C90.9597 12.638 90.2168 13.8746 89.4438 15.0857C89.119 15.6088 88.7036 16.0719 88.2865 16.5368C88.187 16.6478 88.0873 16.7588 87.9888 16.8708C87.9334 16.9427 87.8372 16.9763 87.6905 17.0277C87.6034 17.0581 87.4986 17.0948 87.3741 17.1493C87.8405 15.1102 88.2574 13.2613 88.6743 11.4124C88.7453 11.092 88.8168 10.7713 88.8884 10.4504L88.8886 10.4498C89.2602 8.7835 89.6334 7.11016 89.9476 5.429C90.0481 4.93784 89.9958 4.33416 89.8252 3.8194C89.5564 2.97171 88.553 2.60196 87.9351 3.1015C87.6206 3.33361 87.356 3.67691 87.2407 4.0523C87.078 4.55111 86.914 5.04951 86.75 5.54802L86.7499 5.54821C86.0831 7.57512 85.4156 9.60386 84.8305 11.6693C84.5305 12.6848 84.3841 13.7603 84.2386 14.8292C84.2077 15.0565 84.1768 15.2835 84.1444 15.5096C84.0086 16.5128 84.3865 17.4273 85.4168 18.0436C85.9457 18.372 86.5577 18.6161 87.1361 18.7543C88.5452 19.0639 89.775 18.8085 90.605 17.8695C91.2655 17.1381 91.8455 16.3474 92.4274 15.5542L92.4275 15.5541L92.4276 15.554C92.6478 15.2538 92.8683 14.9533 93.0935 14.6555C93.1735 14.5384 93.2495 14.4201 93.3255 14.3017L93.3258 14.3011C93.4017 14.183 93.4775 14.0648 93.5575 13.9479C93.5452 14.2642 93.5305 14.5769 93.5159 14.8871V14.8873V14.8875V14.8877V14.8879V14.8881V14.8883C93.482 15.6072 93.4488 16.3131 93.4486 17.0218C93.4504 17.7204 93.7306 18.0958 94.3727 18.3654C95.0448 18.6606 95.6503 18.5377 95.9644 18.0041C96.0118 17.9209 96.0599 17.8376 96.1081 17.7541L96.1082 17.7541L96.1082 17.754L96.1082 17.7539L96.1083 17.7538C96.4327 17.1916 96.763 16.6193 96.9593 15.9919C97.5127 14.2503 97.9847 12.4826 98.4566 10.7148C98.6294 10.0738 98.7765 9.41566 98.9227 8.76157L98.9227 8.76132ZM208.197 11.5167C208.423 10.9369 208.645 10.359 208.866 9.78326C209.495 8.14574 210.117 6.52539 210.802 4.92491C211.313 3.70801 211.919 2.53728 212.924 1.65194C213.328 1.28877 213.801 1.23297 214.378 1.47984C214.972 1.7319 215.272 2.09679 215.213 2.66438C215.202 2.7631 215.192 2.86216 215.182 2.96135L215.182 2.96252C215.105 3.72594 215.026 4.49722 214.761 5.18408C213.565 8.28327 212.332 11.3608 211.096 14.443L211.096 14.4442L211.095 14.446C210.743 15.3235 210.391 16.2014 210.04 17.0802C209.942 17.3198 209.814 17.5426 209.688 17.7635L209.687 17.7636C209.629 17.8659 209.57 17.9678 209.515 18.0707C209.265 18.546 208.822 18.6272 208.262 18.4811C207.276 18.2152 206.472 17.6745 205.991 16.7448C205.741 16.2848 205.547 15.7953 205.386 15.3161C205.072 14.3087 204.775 13.3015 204.478 12.2953L204.478 12.2941L204.476 12.288L204.476 12.2867C204.265 11.5731 204.055 10.8599 203.839 10.1476C203.818 10.0822 203.79 10.0149 203.753 9.92188L203.752 9.92012C203.729 9.86282 203.702 9.79579 203.67 9.71355C203.446 9.90294 203.388 10.136 203.331 10.3609C203.312 10.437 203.293 10.5123 203.268 10.5846C203.13 11.0294 202.996 11.4768 202.862 11.9244C202.497 13.1465 202.132 14.37 201.672 15.5469C201.402 16.2683 200.924 16.8869 200.455 17.4934C200.389 17.5776 200.324 17.6617 200.26 17.7457C199.784 18.3395 198.282 17.767 197.968 16.8589C197.551 15.6482 197.318 14.4644 197.65 13.286C198.534 10.0314 199.654 6.89962 200.919 3.82961C201.262 3.00328 201.619 2.1972 202.008 1.40149C202.242 0.921048 202.625 0.582815 203.287 0.729949C203.985 0.872392 204.578 1.23505 204.931 1.90213C205.112 2.26085 205.239 2.63414 205.366 3.00743C206.042 5.06367 206.707 7.12546 207.371 9.1823C207.593 9.87011 207.815 10.5574 208.037 11.2437C208.087 11.3548 208.142 11.4358 208.197 11.5167ZM118.996 17.2476L119.133 17.1375L119.236 17.0544C119.251 17.4029 119.262 17.7284 119.273 18.0411L119.273 18.0426L119.273 18.0442C119.293 18.61 119.312 19.1335 119.342 19.6738C119.404 20.4234 119.694 20.7387 120.447 20.9645C121.151 21.1746 121.461 21.068 121.772 20.454C122.372 19.2507 122.939 18.0369 123.173 16.6531C123.549 14.4419 123.908 12.2254 124.234 9.99854C124.343 9.25624 124.115 8.97692 123.339 8.58498C123.037 8.44037 122.713 8.32061 122.384 8.23093C121.662 8.03064 121.154 8.18488 120.808 8.80351C120.21 9.89626 119.561 10.9883 118.854 12.0144C118.029 13.2248 117.145 14.3842 116.244 15.5384C116.022 15.8043 115.735 16.0198 115.429 16.2502C115.289 16.3558 115.145 16.4644 115 16.5826C114.473 15.6361 114.47 14.8421 114.584 14.0697C115.153 10.4138 116.463 7.15438 118.778 4.45571C119.246 3.92409 119.807 3.45397 120.366 2.99889C120.747 2.67719 121.209 2.4922 121.777 2.99201C121.868 3.06855 122.009 3.14576 122.115 3.13205C122.158 3.12637 122.204 3.12166 122.249 3.11692C122.46 3.09496 122.676 3.07236 122.782 2.94972C122.868 2.85033 122.739 2.49189 122.613 2.32443C122.429 2.0909 122.156 1.87632 121.891 1.7121C120.485 0.879852 119.097 0.75135 117.727 1.12057C116.774 1.36954 115.95 1.86642 115.258 2.50068C112.252 5.21554 110.625 8.72209 110.467 13.0014C110.371 15.7941 112.285 17.9947 115.181 18.5597C116.364 18.7811 117.328 18.4719 118.167 17.8848C118.434 17.7018 118.681 17.5023 118.996 17.2477L118.996 17.2476ZM151.014 10.1042C150.228 13.2944 148.762 15.92 146.303 17.8021C144.339 19.2866 141.907 19.9722 139.126 19.7545C138.888 19.7422 138.636 19.7096 138.41 19.6219C137.811 19.4 137.274 19.3244 136.681 19.4847C135.764 19.7323 134.765 18.6065 134.94 17.5523C135.043 16.9331 135.233 16.3415 135.423 15.75L135.473 15.5953L135.504 15.4963C135.735 14.7603 135.963 14.0242 136.19 13.2889L136.19 13.2886L136.19 13.2883L136.19 13.2875L136.191 13.2867C136.822 11.2432 137.452 9.20559 138.152 7.19034C138.548 6.02245 139.028 4.88903 139.507 3.75768L139.507 3.75727L139.508 3.75628L139.508 3.75546C139.722 3.25144 139.935 2.74783 140.141 2.24176C140.159 2.1956 140.179 2.14883 140.2 2.10173L140.2 2.10122C140.28 1.91849 140.362 1.73082 140.323 1.55469C140.18 0.970067 140.493 0.736751 140.934 0.670581C141.517 0.570586 142.144 0.516268 142.752 0.582425C144.536 0.800649 146.26 1.38031 147.86 2.50683C149.968 3.98514 150.88 5.93971 151.061 8.16883C151.105 8.68641 151.071 9.1975 151.04 9.66588C151.031 9.81681 151.021 9.9633 151.014 10.1042ZM138.191 17.9355C140.501 17.3693 142.443 16.6388 143.823 15.0481C144.883 13.8314 145.695 12.4565 146.384 10.995C146.965 9.76868 147.323 8.4397 147.319 7.01172C147.316 6.20219 147.15 5.34082 146.892 4.51376C146.591 3.53042 145.893 2.76953 144.767 2.61796C144.217 2.53656 143.67 2.51211 143.125 2.48774C143.022 2.48314 142.919 2.47854 142.816 2.47356C142.407 2.45455 142.22 2.64885 142.155 3.04041C141.461 6.82939 140.392 10.4846 139.323 14.1393L139.323 14.1397L139.195 14.5764L139.082 14.9595C138.805 15.8949 138.522 16.8551 138.191 17.9355ZM154.537 17.416C154.228 17.4108 153.907 17.4054 153.567 17.3983C153.766 16.821 153.962 16.2519 154.155 15.6894C154.665 14.2063 155.159 12.7688 155.669 11.3447C156.046 11.3461 156.433 11.3758 156.82 11.4056C158.144 11.5073 159.467 11.6091 160.383 10.5754C159.721 9.6992 159.721 9.6992 156.314 9.21905L157.25 3.57157C157.78 3.53119 158.324 3.52348 158.869 3.51575C160.434 3.49356 162.016 3.47112 163.359 2.67481C162.903 1.89883 162.238 1.8039 161.616 1.71516L161.561 1.7073C159.583 1.4118 157.735 1.68068 155.946 2.11102C155.66 2.17867 155.357 2.35174 155.233 2.58184C153.792 5.26302 152.444 8.00542 151.459 10.9424C150.897 12.5711 150.428 14.261 150.073 15.9872C149.707 17.6781 150.438 18.6555 152.336 19.2268C152.695 19.3408 153.059 19.4248 153.405 19.408C154.371 19.382 155.326 19.3208 156.272 19.2092C156.637 19.1825 156.973 19.0198 157.277 18.8468C157.313 18.8257 157.353 18.805 157.393 18.7837C157.646 18.6503 157.937 18.497 157.792 18.1226C157.64 17.6938 157.234 17.5491 156.811 17.5099C156.714 17.5032 156.615 17.4936 156.514 17.4838C156.351 17.4679 156.184 17.4517 156.015 17.447C155.534 17.4329 155.053 17.4248 154.538 17.4161L154.538 17.4161L154.537 17.416ZM234.199 15.2318C234.356 15.0432 234.519 14.848 234.688 14.6412C234.685 14.7324 234.68 14.8176 234.674 14.8978C234.662 15.0871 234.651 15.2481 234.69 15.3925C234.74 15.5816 234.873 15.8085 235.04 15.868C235.536 16.03 236.051 16.0235 236.517 15.61C237.023 15.1608 237.529 14.7132 238.033 14.2672C238.635 13.7354 239.233 13.2058 239.827 12.6782C240.017 12.5091 240.196 12.3241 240.371 12.1419L240.371 12.1417C240.453 12.0567 240.535 11.9722 240.617 11.8903C241.169 12.3064 241.846 13.2073 242.059 13.7868C242.548 15.1195 241.585 16.6473 240.101 16.9047C239.969 16.9283 239.778 17.0692 239.752 17.1806C239.728 17.284 239.854 17.5024 239.956 17.5172C240.036 17.5272 240.117 17.5394 240.199 17.5518L240.199 17.5518C240.535 17.6026 240.881 17.6548 241.193 17.5584C242.011 17.3055 242.775 16.8874 243.274 16.1126C243.347 16.0043 243.467 15.9072 243.576 15.8255C244.55 15.0901 245.374 14.1913 246.125 13.2393C246.173 13.1788 246.223 13.1183 246.274 13.0566L246.274 13.0558L246.275 13.0547C246.34 12.9762 246.406 12.8955 246.473 12.8099C246.295 13.321 246.117 13.8296 245.939 14.3366L245.938 14.3385C245.385 15.9145 244.837 17.4745 244.33 19.0417C244.024 19.9947 243.757 20.9593 243.491 21.9238L243.49 21.9265C243.319 22.5461 243.148 23.1657 242.966 23.7821C242.868 24.1193 242.759 24.4521 242.649 24.7848L242.649 24.7851L242.649 24.7856L242.649 24.7858L242.649 24.7861L242.649 24.7863L242.649 24.7864L242.649 24.7866L242.649 24.7867L242.649 24.7869L242.648 24.7871C242.524 25.1652 242.399 25.5431 242.292 25.9267C242.254 26.0695 242.31 26.3236 242.412 26.3869C242.794 26.6141 243.388 26.3059 243.546 25.864C243.682 25.4752 243.812 25.0853 243.943 24.6959C244.26 23.7491 244.577 22.8053 244.966 21.8866C245.459 20.7249 246.003 19.577 246.546 18.4303C246.829 17.832 247.112 17.2339 247.388 16.6345C247.538 16.297 247.728 16.1561 248.106 16.2053C248.389 16.2401 248.692 16.2036 248.982 16.142C250.914 15.7444 252.288 14.5588 253.233 12.8361C253.584 12.1887 253.771 11.5064 253.608 10.8091C253.56 10.604 253.452 10.3707 253.294 10.2552C252.755 9.85617 252.131 9.6938 251.434 10.0436C251.094 10.215 250.749 10.4184 250.44 10.6485C249.268 11.5162 248.425 12.6479 247.672 13.8584C247.607 13.9672 247.534 14.0754 247.461 14.1837C247.476 13.9508 247.546 13.7414 247.616 13.5339L247.616 13.5337L247.638 13.4684C247.764 13.0759 247.894 12.6845 248.023 12.2935L248.024 12.2905L248.025 12.2874L248.026 12.2843C248.282 11.5121 248.538 10.741 248.766 9.96449C248.903 9.50499 248.731 9.37249 248.211 9.20894C247.845 9.08785 247.644 9.24421 247.41 9.55993C246.441 10.8921 245.446 12.2105 244.451 13.5272L244.451 13.5276L244.45 13.5278L243.965 14.171C243.888 14.2719 243.79 14.3599 243.693 14.447C243.65 14.486 243.607 14.5249 243.566 14.5647C243.496 14.4212 243.434 14.2797 243.373 14.1418C243.243 13.8469 243.12 13.5684 242.951 13.3206C242.709 12.9654 242.436 12.6358 242.163 12.3062C242.045 12.165 241.928 12.0237 241.814 11.8804C241.544 11.546 241.406 11.3754 241.396 11.1973C241.385 11.012 241.511 10.8185 241.77 10.4236L241.778 10.4122L241.786 10.4022C241.791 10.3954 241.796 10.3886 241.802 10.3817C241.829 10.3473 241.857 10.3125 241.856 10.2839C241.855 10.2649 241.853 10.2442 241.852 10.2224L241.852 10.2199C241.843 10.0834 241.833 9.90844 241.774 9.89068C241.737 9.88076 241.7 9.87021 241.663 9.85936L241.592 9.83888L241.592 9.83876L241.592 9.83869C241.287 9.74928 240.962 9.65421 240.684 9.72989C240.289 9.84116 240.079 10.2554 240.018 10.6957C239.99 10.8716 239.911 11.0683 239.801 11.2064C238.738 12.5094 237.494 13.6309 236.19 14.6837C236.168 14.7013 236.142 14.7103 236.096 14.726C236.064 14.7369 236.023 14.7512 235.967 14.774C236.025 14.5626 236.078 14.3573 236.13 14.1568C236.241 13.7256 236.346 13.317 236.491 12.9185C236.689 12.3792 236.909 11.8492 237.129 11.3195L237.129 11.3194L237.129 11.3193L237.129 11.3192L237.129 11.319C237.298 10.9116 237.467 10.5044 237.626 10.0935C237.68 9.95169 237.701 9.7188 237.618 9.63256C237.31 9.29718 236.675 9.45722 236.422 9.89286L236.285 10.1314C235.18 12.0689 234.071 14.0122 232.576 15.7215C232.47 15.8357 232.356 15.9493 232.242 16.0629L232.091 16.053C232.085 15.9503 232.073 15.8464 232.062 15.7421L232.062 15.7413C232.036 15.508 232.011 15.2722 232.042 15.04C232.172 14.0551 232.303 13.0702 232.521 12.091C232.733 11.1519 232.962 10.2058 233.335 9.31756L233.412 9.13372C234.337 6.92372 235.26 4.71915 235.871 2.42513C236.002 1.94912 235.96 1.85751 235.503 1.70615C234.999 1.54364 234.88 1.58427 234.572 2.06474C234.445 2.25831 234.333 2.46093 234.22 2.67155C233.379 4.24042 232.877 5.91267 232.375 7.58568L232.332 7.7306C232.299 7.83957 232.266 7.94853 232.233 8.05745C232.113 8.44901 232.002 8.84112 231.888 9.23933C231.846 9.38866 231.803 9.53885 231.76 9.69019C231.729 9.6822 231.702 9.6754 231.678 9.66929C231.603 9.65063 231.553 9.63828 231.514 9.61745C230.428 9.02875 229.435 9.31867 228.463 10.143C227.293 11.1563 226.487 12.4036 225.915 13.7956C225.553 14.6683 225.309 15.5569 225.511 16.4668C225.638 17.0326 225.904 17.4863 226.529 17.5922C227.303 17.724 228.029 17.5458 228.577 16.9196C229.066 16.366 229.515 15.7781 229.963 15.1923L229.964 15.1913L229.964 15.1908L229.965 15.1906C230.115 14.9936 230.266 14.7968 230.418 14.6016C230.514 14.4802 230.597 14.3463 230.695 14.1888L230.695 14.1884L230.695 14.1882C230.74 14.117 230.787 14.041 230.84 13.9591C230.828 14.1577 230.814 14.342 230.8 14.517L230.8 14.5179L230.8 14.5185V14.5187V14.5189V14.519C230.776 14.8395 230.753 15.1284 230.755 15.4155C230.755 16.1264 231.019 16.4911 231.606 16.6349C232.269 16.8079 232.906 16.8418 233.437 16.166C233.678 15.8561 233.93 15.5534 234.199 15.2318ZM229.62 10.4375C230.406 9.77854 230.627 9.75272 231.559 10.202C231.44 10.4311 231.325 10.6614 231.211 10.8909L231.211 10.8911L231.211 10.8914L231.211 10.8917L231.21 10.8919L231.21 10.8921L231.21 10.8922C230.982 11.3505 230.756 11.8054 230.5 12.2404C229.788 13.4534 229.045 14.6565 228.273 15.8414C228.035 16.1989 227.704 16.5112 227.389 16.8085L227.372 16.8239C227.06 17.1264 226.914 17.0845 226.775 16.6956C226.496 15.9179 226.668 15.1296 226.959 14.3491C227.495 12.9306 228.274 11.6492 229.434 10.6029C229.466 10.5768 229.497 10.5485 229.527 10.5202L229.562 10.4878C229.581 10.4706 229.6 10.4536 229.62 10.4375ZM248.015 15.6581C248.245 14.1951 251.163 10.8496 252.446 10.5951C252.581 11.1129 252.461 11.6219 252.216 12.1066C251.353 13.8186 249.994 14.9648 248.215 15.6147C248.183 15.6254 248.149 15.6314 248.113 15.6375C248.08 15.643 248.047 15.6487 248.015 15.6581ZM259.125 15.3707L259.124 15.3712C258.986 15.4831 258.844 15.5971 258.701 15.7172C258.674 15.6662 258.652 15.6277 258.635 15.5967L258.634 15.5948L258.634 15.5946C258.6 15.5352 258.582 15.504 258.572 15.4663C258.552 15.3923 258.531 15.3182 258.536 15.2378C258.573 14.392 258.827 13.593 259.312 12.8576C259.52 12.542 259.736 12.2296 259.953 11.9168C260.108 11.6926 260.263 11.4682 260.416 11.2423C260.539 11.0727 260.621 10.86 260.394 10.7723C260.362 10.7597 260.329 10.7463 260.295 10.7326C260.041 10.6296 259.745 10.5095 259.546 10.6032C259.207 10.7699 258.927 10.7094 258.642 10.6477C258.562 10.6303 258.482 10.6128 258.399 10.6002C258.172 10.5611 257.928 10.5368 257.691 10.5616C255.723 10.7791 253.758 12.7657 253.456 14.8379C253.352 15.5499 253.636 15.9402 254.312 16.1302C255.235 16.385 256.013 16.0244 256.775 15.4689C256.895 15.3806 257.013 15.2882 257.145 15.1844C257.201 15.1401 257.26 15.0937 257.323 15.0446C257.457 15.8774 257.979 16.1784 258.685 16.2815C259.211 16.3566 259.659 16.16 260.093 15.8494C260.402 15.627 260.717 15.405 261.002 15.2045L261.009 15.1995L261.167 15.0883C261.155 15.1118 261.123 15.2147 261.099 15.3181C260.923 15.9769 261.098 16.2954 261.718 16.4817C262.201 16.6267 262.695 16.5947 263.167 16.3512C263.569 16.1434 263.966 15.9112 264.35 15.6619C264.647 15.4686 264.933 15.2674 265.232 15.0571L265.235 15.0544L265.237 15.0533L265.238 15.0527L265.24 15.0515L265.248 15.0452C265.387 14.948 265.528 14.8488 265.674 14.7476C265.39 15.7871 265.533 16.2569 266.197 16.6239C266.764 16.944 267.397 17.1069 268.061 16.86C268.725 16.6211 269.395 16.3422 269.987 15.945C271.18 15.1433 272.07 14.0228 272.938 12.8926C273.203 12.545 273.466 12.1943 273.73 11.8424C273.898 11.6182 274.066 11.3935 274.236 11.1689C274.236 11.3709 274.169 11.5441 274.102 11.7174C273.641 12.9633 273.18 14.2091 272.727 15.4555C272.586 15.842 272.694 16.1238 273.041 16.3163C273.544 16.5918 273.743 16.5969 274.187 16.1738C274.516 15.859 274.839 15.5379 275.162 15.2165L275.162 15.2164L275.163 15.216L275.163 15.2154L275.165 15.2141L275.167 15.212L275.168 15.2111L275.168 15.2105C275.603 14.7781 276.039 14.3453 276.49 13.9268C276.823 13.6139 277.184 13.3328 277.546 13.0511L277.546 13.0509C277.716 12.9181 277.887 12.7852 278.055 12.6488C278.07 12.6582 278.085 12.6666 278.098 12.6746C278.125 12.6898 278.149 12.7037 278.172 12.7211C278.156 12.8251 278.138 12.9289 278.121 13.0328C278.087 13.2405 278.052 13.4483 278.025 13.6565C277.908 14.505 277.921 15.3379 278.216 16.1166C278.441 16.7212 278.859 17.1769 279.511 17.3168C279.714 17.3574 279.971 17.2702 280.208 17.1896C280.253 17.1743 280.297 17.1593 280.341 17.1454C280.408 17.1256 280.494 16.9374 280.474 16.8553C280.428 16.6422 279.874 16.3876 279.685 16.5205C279.298 16.7858 279.206 16.5535 279.136 16.2824C278.899 15.3943 278.987 14.4793 279.196 13.5561C279.257 13.2693 279.32 12.9746 279.325 12.6841C279.342 11.8129 278.413 11.2911 277.615 11.7231C277.229 11.9319 276.853 12.1817 276.511 12.4661C275.994 12.8954 275.49 13.3405 274.964 13.8045L274.962 13.8071L274.96 13.8081L274.96 13.8085L274.96 13.8087C274.717 14.0227 274.47 14.2408 274.215 14.4632C274.356 14.1201 274.49 13.7849 274.622 13.4557C274.856 12.872 275.083 12.307 275.324 11.7496C275.768 10.736 276.217 9.72719 276.666 8.71928L276.669 8.71192C277.081 7.78619 277.493 6.86124 277.9 5.93411C278.109 5.47133 277.998 5.31053 277.462 5.04095C277.11 4.86758 276.965 5.08441 276.804 5.32686L276.803 5.32887L276.781 5.36143L276.767 5.38276C276.417 5.90346 276.075 6.42866 275.732 6.95381L275.73 6.95595L275.728 6.95901L275.726 6.96345L275.725 6.96394L275.725 6.96428C274.991 8.08947 274.256 9.21425 273.459 10.2937C272.388 11.7497 271.215 13.1343 270.008 14.4844C269.305 15.2781 268.435 15.9153 267.383 16.1771C266.773 16.3307 266.629 16.1758 266.829 15.567C266.863 15.4481 266.914 15.3303 266.986 15.23C267.079 15.1094 267.169 14.986 267.259 14.8627C267.489 14.5462 267.719 14.2305 268.003 13.9644C268.496 13.5034 269.022 13.0745 269.549 12.6445C269.747 12.4833 269.944 12.322 270.141 12.1587L270.173 12.1328C270.309 12.0247 270.428 11.9292 270.287 11.7403C270.021 11.3915 269.416 11.3112 268.998 11.5664C268.698 11.7506 268.398 11.932 268.097 12.1132C267.518 12.4627 266.94 12.8114 266.37 13.1781C265.59 13.6813 264.822 14.1997 264.054 14.7181C263.67 14.9772 263.286 15.2363 262.901 15.4935C262.78 15.5739 262.651 15.6404 262.523 15.7065C262.452 15.7431 262.381 15.7796 262.312 15.8182L262.302 15.8089L262.289 15.7977L262.266 15.7787C262.25 15.7656 262.234 15.7524 262.22 15.7394C262.277 15.5834 262.33 15.4255 262.383 15.2677C262.498 14.9231 262.613 14.5792 262.774 14.2574C263.663 12.4824 264.575 10.7171 265.494 8.9522C266.01 7.96846 266.028 7.95352 267.091 8.03174C267.547 8.0637 268.006 8.08698 268.465 8.11026C270.017 8.18904 271.571 8.26797 273.054 8.6838C273.128 8.70516 273.225 8.6643 273.323 8.6236C273.369 8.6046 273.414 8.58564 273.457 8.57305C273.443 8.53532 273.433 8.49182 273.422 8.44826C273.398 8.34851 273.374 8.24838 273.312 8.21618C273.265 8.19228 273.218 8.16777 273.17 8.14313L273.169 8.14271L273.168 8.14228C272.864 7.98524 272.55 7.82329 272.217 7.78042C270.927 7.62876 269.627 7.50365 268.33 7.37875L268.33 7.37871C267.893 7.33668 267.457 7.29467 267.021 7.25168L266.529 7.21919C266.604 7.09676 266.673 6.98592 266.738 6.88171L266.739 6.8801C266.843 6.71397 266.937 6.56461 267.025 6.41186C267.246 6.05061 267.008 5.91091 266.779 5.77623L266.754 5.76109L266.729 5.74608L266.728 5.74565C266.493 5.60908 266.243 5.46404 266.01 5.82787C265.929 5.94916 265.846 6.06832 265.763 6.18724L265.763 6.18753L265.763 6.18771C265.608 6.41005 265.453 6.63155 265.317 6.86456C265.153 7.14451 264.938 7.23533 264.647 7.24844C262.941 7.32973 261.225 7.42648 259.517 7.52375C259.437 7.5333 259.352 7.55462 259.264 7.57673C259.208 7.59075 259.151 7.60509 259.093 7.61694C259.252 7.93436 259.46 8.08547 259.859 8.10368C260.52 8.13119 261.187 8.12673 261.855 8.11426C262.545 8.10312 263.242 8.07771 263.97 8.05114C264.176 8.04364 264.385 8.03604 264.596 8.02864C264.512 8.17916 264.431 8.32295 264.352 8.46215C264.224 8.6903 264.102 8.90612 263.984 9.11906C262.87 11.0973 261.605 12.9686 259.999 14.6073C259.734 14.8802 259.437 15.12 259.125 15.3707ZM257.67 11.3055C258.02 11.1484 258.396 10.9799 258.769 11.2063C258.047 12.7338 257.204 14.1159 255.802 15.0735C255.56 15.2352 255.303 15.3879 255.056 15.5331C254.765 15.6997 254.639 15.5783 254.65 15.3044C254.662 15.079 254.698 14.8471 254.78 14.6344C255.325 13.2084 256.159 11.9871 257.627 11.3248L257.67 11.3055ZM280.267 20.1547C280.304 20.158 280.342 20.1616 280.379 20.1652C280.545 20.1813 280.711 20.1973 280.881 20.1859C281.528 20.1559 281.864 20.5174 282.06 21.0554C282.19 21.4032 282.078 21.5573 281.686 21.5476C280.784 21.5204 279.883 21.4851 278.981 21.4499C277.063 21.3839 275.147 21.3159 273.232 21.248L273.228 21.2479L273.225 21.2478C271.309 21.1799 269.393 21.112 267.475 21.0459L267.104 21.0339L266.161 21.003L266.161 21.0029C264.449 20.9466 262.735 20.8901 261.022 20.8543C257.951 20.7969 254.877 20.7475 251.806 20.7387C251.08 20.7374 250.349 20.7891 249.619 20.8407C249.212 20.8695 248.805 20.8982 248.4 20.9178C248.222 20.9222 248.011 20.8921 247.899 20.7878C247.796 20.6984 247.739 20.5605 247.682 20.4244C247.662 20.374 247.641 20.3238 247.618 20.2765C247.674 20.2538 247.73 20.2259 247.786 20.1982C247.9 20.1411 248.014 20.0847 248.123 20.0756C248.531 20.0405 248.939 20.003 249.346 19.9656L249.346 19.9656L249.347 19.9656L249.348 19.9655C250.639 19.847 251.928 19.7286 253.215 19.6847C254.947 19.6223 256.674 19.6285 258.397 19.6347C258.801 19.6362 259.205 19.6376 259.609 19.6382C260.821 19.6374 262.029 19.6606 263.242 19.7003C264.591 19.7374 265.939 19.7789 267.287 19.8204L267.288 19.8204C269.085 19.8757 270.883 19.9311 272.682 19.976C274.356 20.0216 276.027 20.0526 277.698 20.0836L277.699 20.0836C278.525 20.0989 279.35 20.1142 280.176 20.1313C280.168 20.1308 280.167 20.1388 280.165 20.1468C280.182 20.1479 280.2 20.1492 280.217 20.1505L280.267 20.1547ZM225.072 21.656C225.271 21.968 225.521 22.2188 225.957 22.1506C228.195 22.0479 230.442 21.9458 232.689 21.8437C234.476 21.7517 236.272 21.6601 238.058 21.5761C238.896 21.5384 239.736 21.5082 240.577 21.478L240.578 21.478C240.978 21.4636 241.379 21.4492 241.779 21.434C242.159 21.4186 242.233 21.3024 242.104 20.9546C241.968 20.5902 241.733 20.405 241.316 20.4018C240.74 20.4026 240.164 20.3924 239.588 20.3822C238.609 20.3649 237.63 20.3475 236.649 20.3845C233.999 20.4757 231.347 20.618 228.695 20.7603L227.716 20.8127C226.94 20.8503 226.165 20.9285 225.389 21.0146C224.924 21.0647 224.827 21.2763 225.072 21.656ZM239.466 6.43454L239.465 6.4352C239.152 6.73436 238.852 7.0205 238.522 7.25279C238.405 7.33392 238.079 7.15896 237.881 7.04088C237.844 7.02227 237.929 6.68859 238.04 6.59095C238.303 6.3498 238.601 6.13525 238.917 5.96225C239.297 5.74494 239.587 5.94179 239.818 6.10246C239.697 6.21356 239.581 6.32492 239.466 6.43454ZM282.009 17.2474C282.211 17.4465 282.754 17.3612 283 17.1755C282.995 17.0953 282.985 17.0178 282.976 16.9426V16.9423C282.958 16.8047 282.942 16.675 282.961 16.551C283.081 15.9935 282.919 15.8535 282.359 15.9943C281.974 16.0981 281.877 16.4067 281.838 16.703C281.817 16.8874 281.892 17.1266 282.009 17.2474Z" fill="white"/>
</svg>
