<svg width="361" height="167" viewBox="0 0 361 167" fill="none" xmlns="http://www.w3.org/2000/svg">
<path d="M3.75671 166C1.22895 166 1.15765 137.867 1.06172 136.061C0.42285 124.031 4.48219 79.8302 25.5692 88.1254C44.119 95.4224 58.9483 110.176 77.953 117.476C84.9032 120.145 95.3576 125.56 102.966 122.606C114.571 118.099 117.771 102.499 120.146 91.8257C122.53 81.1159 124.362 37.7677 140.864 38.0031C150.776 38.1445 160.129 47.8255 168.319 52.3838C180.651 59.2474 193.398 61.1688 207.397 59.8685C228.641 57.8951 223 27.2362 245.884 29.1728C261.974 30.5344 277.066 33.1001 293.299 30.9388C319.496 27.451 338.517 15.5121 360 1" stroke="white" stroke-width="2" stroke-linecap="round" stroke-linejoin="round"/>
</svg>
