<svg width="65" height="61" viewBox="0 0 65 61" fill="none" xmlns="http://www.w3.org/2000/svg">
<path d="M1 59.5714C1 56.4229 3.52954 52.7315 5.30525 50.3101C8.74328 45.6219 12.6271 40.0695 17.3199 36.5934C19.4055 35.0485 20.6939 32.9955 23.0268 31.6624C25.0654 30.4975 26.7106 28.9894 28.884 28.058C31.5148 26.9305 34.3406 28.5481 34.3406 31.6374C34.3406 34.6273 30.9325 37.0439 28.1331 37.0439C22.184 37.0439 25.9363 27.7709 27.1318 25.3797C29.8489 19.9455 35.7113 16.126 41.0488 13.5153C46.1445 11.0228 51.2447 9.32694 56.6678 7.75825C58.7635 7.15207 60.5508 5.95605 62.7252 5.95605" stroke="white" stroke-width="2" stroke-linecap="round" stroke-linejoin="round"/>
<path d="M55.0664 1C57.1454 1 60.6102 3.50176 62.1751 4.95482C63.6801 6.35232 64.4256 6.1592 63.0762 7.95848C61.1323 10.5503 59.1107 13.1807 57.3192 15.8681" stroke="white" stroke-width="2" stroke-linecap="round" stroke-linejoin="round"/>
</svg>
