<svg width="26" height="41" viewBox="0 0 26 41" fill="none" xmlns="http://www.w3.org/2000/svg">
<path d="M3.14967 20.69C0.270325 20.69 3.53259 19.2966 4.97657 18.291C10.7951 14.2392 16.4662 9.54044 23.2456 7.16832C27.9597 5.51885 21.7539 13.245 21.0963 14.0382C16.8622 19.1452 12.2329 23.8988 8.63038 29.5228C6.59808 32.6954 1.7679 42.8559 2.82728 39.2279C6.09573 28.0345 11.2907 18.4923 12.6066 6.62309C13.7534 -3.72102 14.7073 5.77525 15.938 11.094C17.385 17.3479 18.8694 23.659 20.559 29.8499C20.5856 29.9476 22.1938 34.5053 20.559 33.0122C15.5008 28.3929 7.00928 25.9119 3.14967 20.69Z" stroke="white" stroke-width="2" stroke-linecap="round" stroke-linejoin="round"/>
</svg>
