<svg width="116" height="35" viewBox="0 0 116 35" fill="none" xmlns="http://www.w3.org/2000/svg">
<path d="M34.969 15.6683H24.3163L33.5415 10.3367L31.7121 7.16333L22.4857 12.495L27.8109 3.26083L24.6414 1.42917L19.3151 10.661V0H15.6539V10.6622L10.3276 1.42917L7.15693 3.26083L12.4821 12.4927L3.25802 7.16333L1.42742 10.3367L10.6527 15.6683H0V19.3328H10.6515L1.42742 24.6645L3.25686 27.8378L12.4833 22.5062L7.15693 31.7403L10.3264 33.572L15.6539 24.339V35H19.3151V24.1103L24.7393 33.5137L27.7118 31.7963L22.2865 22.3907L31.7098 27.8367L33.5404 24.6633L24.3163 19.3317H34.9678V15.6683H34.969ZM17.4845 22.4817C16.8309 22.4817 16.1838 22.3529 15.5799 22.1026C14.9761 21.8523 14.4274 21.4853 13.9652 21.0226C13.503 20.56 13.1364 20.0107 12.8862 19.4062C12.636 18.8017 12.5072 18.1538 12.5071 17.4994C12.5071 16.8451 12.6357 16.1971 12.8858 15.5925C13.1358 14.9879 13.5023 14.4386 13.9644 13.9759C14.4265 13.5131 14.9751 13.146 15.5788 12.8955C16.1826 12.645 16.8298 12.5161 17.4833 12.516C18.8032 12.5158 20.0692 13.0407 21.0026 13.975C21.936 14.9094 22.4605 16.1767 22.4607 17.4982C22.4608 18.8198 21.9366 20.0872 21.0034 21.0218C20.0702 21.9564 18.8044 22.4815 17.4845 22.4817Z" fill="#303037" fill-opacity="0.8"/>
<path d="M44.4062 30.3029V4.69922H49.0999V30.3029H44.4062ZM89.4231 12.9032H93.9046V15.0266C94.8578 13.3291 97.0822 12.4086 98.9874 12.4086C101.353 12.4086 103.258 13.4352 104.14 15.3077C105.515 13.1844 107.352 12.4086 109.646 12.4086C112.857 12.4086 115.927 14.3534 115.927 19.0212V30.3029H111.375V19.9767C111.375 18.1019 110.457 16.6867 108.304 16.6867C106.291 16.6867 105.091 18.2442 105.091 20.119V30.304H100.435V19.9767C100.435 18.1019 99.4815 16.6867 97.3631 16.6867C95.3157 16.6867 94.1155 18.2092 94.1155 20.119V30.304H89.4231V12.9032ZM59.7071 30.8069C54.4192 30.8069 50.5902 26.8787 50.5902 21.6031C50.5902 16.4114 54.4075 12.3911 59.7071 12.3911C65.0322 12.3911 68.8239 16.4487 68.8239 21.6031C68.8239 26.8414 64.9926 30.8069 59.7071 30.8069ZM59.7071 16.6494C58.3955 16.6512 57.1381 17.174 56.211 18.1029C55.2839 19.0318 54.7627 20.291 54.7618 21.6042C54.7627 22.9174 55.2839 24.1766 56.211 25.1056C57.1381 26.0345 58.3955 26.5572 59.7071 26.559C61.0185 26.5569 62.2755 26.034 63.2024 25.1051C64.1292 24.1763 64.6503 22.9172 64.6512 21.6042C64.6503 20.2912 64.1292 19.0322 63.2024 18.1033C62.2755 17.1744 61.0185 16.6515 59.7071 16.6494ZM78.8485 30.8069C73.5606 30.8069 69.7317 26.8787 69.7317 21.6031C69.7317 16.4114 73.549 12.3911 78.8485 12.3911C84.1737 12.3911 87.9654 16.4487 87.9654 21.6031C87.9654 26.8414 84.1317 30.8069 78.8485 30.8069ZM78.8485 16.5899C77.5219 16.592 76.2502 17.1209 75.3124 18.0605C74.3747 19 73.8474 20.2736 73.8461 21.6019C73.8474 22.9302 74.3747 24.2037 75.3124 25.1433C76.2502 26.0829 77.5219 26.6117 78.8485 26.6139C80.1752 26.6117 81.4468 26.0829 82.3846 25.1433C83.3224 24.2037 83.8497 22.9302 83.8509 21.6019C83.8497 20.2736 83.3224 19 82.3846 18.0605C81.4468 17.1209 80.1752 16.592 78.8485 16.5899Z" fill="#303037" fill-opacity="0.8"/>
</svg>
