<svg width="148" height="115" viewBox="0 0 148 115" fill="none" xmlns="http://www.w3.org/2000/svg">
<g clip-path="url(#clip0_659_1630)">
<path fill-rule="evenodd" clip-rule="evenodd" d="M94.7843 32.2404L94.7844 32.2403C94.9588 31.9622 95.1405 31.6725 95.3407 31.3688C96.2456 32.7318 97.4586 33.3743 99.0181 33.4717C99.8653 33.5496 100.597 33.3159 101.213 32.6928C102.368 31.5051 103.466 30.2783 104.294 28.818C104.633 28.2209 104.988 27.6322 105.339 27.0518L105.339 27.051C105.526 26.7419 105.711 26.4352 105.892 26.1309C105.922 26.1359 105.946 26.1397 105.967 26.1428C106.026 26.1516 106.051 26.1554 106.065 26.1698C106.111 26.2242 106.16 26.2754 106.209 26.326L106.209 26.3261L106.209 26.3262C106.282 26.4025 106.354 26.4773 106.411 26.5592C107.547 28.078 109.068 28.8958 110.897 29.2463C112.207 29.48 113.381 29.1879 114.228 28.1754C115.942 26.1309 117.598 24.0279 119.253 21.925C119.504 21.5939 119.677 21.185 119.812 20.7956C120.023 20.1725 119.619 19.7247 118.984 19.8999C118.599 20.0167 118.194 20.2504 117.906 20.523C116.77 21.6134 115.653 22.7428 114.556 23.8721C114.087 24.3567 113.63 24.8591 113.172 25.363L113.172 25.3631L113.172 25.3635L113.172 25.3635L113.172 25.3635L113.172 25.3636L113.172 25.3636L113.172 25.3637L113.172 25.3637L113.172 25.3639L113.171 25.3642L113.171 25.3646C112.801 25.7713 112.431 26.1789 112.053 26.5787C111.892 26.7409 111.718 26.8755 111.543 27.0113C111.423 27.1037 111.303 27.1966 111.186 27.2992C110.397 26.1309 110.185 23.2685 110.724 21.7497C112.072 21.7497 113.362 21.4187 114.401 20.5035C116.481 18.6537 117.867 16.3561 118.464 13.6105C118.753 12.267 118.214 11.1571 117.039 10.4756C116 9.87197 114.883 9.63831 113.708 9.75514C111.648 9.96933 110.012 11.0013 108.703 12.5591C106.508 15.1683 105.218 18.1669 105.044 21.6134C105.006 22.256 104.813 22.7623 104.486 23.288C103.759 24.4022 103.046 25.53 102.334 26.6554C101.839 27.4376 101.345 28.2187 100.847 28.9932C100.553 29.4556 100.232 29.8759 99.9058 30.3018L99.9058 30.3019L99.8587 30.3634C99.816 30.4193 99.7733 30.4753 99.7305 30.5315C99.6403 30.6357 99.5242 30.7225 99.3534 30.8503L99.3534 30.8503C99.269 30.9134 99.1712 30.9865 99.0566 31.0767C99.1169 30.7947 99.1654 30.5425 99.2102 30.3097L99.2102 30.3096L99.2103 30.3093C99.2798 29.9474 99.3404 29.6322 99.4224 29.3242C99.923 27.3381 100.443 25.352 100.963 23.3659C102.638 17.0181 104.64 10.7677 107.162 4.69249C107.624 3.60207 108.029 2.45324 108.414 1.32388C108.645 0.642369 108.51 0.350293 107.99 0.0971605C107.432 -0.175444 107.008 -0.078085 106.623 0.467123C106.411 0.759199 106.238 1.07075 106.084 1.38229C105.801 1.9558 105.516 2.52841 105.232 3.10089L105.228 3.10775L105.228 3.10838C104.181 5.21573 103.135 7.32137 102.137 9.46306C101.103 11.6779 100.118 13.9122 99.1324 16.1453L99.1324 16.1454L99.1323 16.1455L99.1323 16.1456L99.1322 16.1457L99.1322 16.1458L99.1321 16.1459L99.1321 16.146L99.132 16.1462L99.132 16.1463L99.1318 16.1467C98.7227 17.0739 98.3137 18.001 97.9014 18.9263C97.838 19.0761 97.7687 19.2317 97.6968 19.3933L97.6966 19.3936C97.6377 19.526 97.577 19.6623 97.5164 19.8025L97.4516 19.7516C97.3174 19.6457 97.2316 19.5781 97.1313 19.5105L97.083 19.4712L97.0827 19.4709L97.0825 19.4708L97.0825 19.4707C96.9971 19.4012 96.9006 19.3224 96.804 19.2573C95.2637 18.3422 93.6079 17.9917 92.0292 18.9653C89.4685 20.5619 87.5624 22.7623 86.6575 25.7609C86.542 26.1698 86.4072 26.5787 86.2147 26.9487C85.9232 27.5026 85.6344 28.0591 85.3455 28.6159L85.3446 28.6177L85.3444 28.618L85.3444 28.6181C84.5266 30.1941 83.7079 31.7718 82.8261 33.2965C82.108 34.5414 81.2895 35.7413 80.4726 36.9389L80.4719 36.9399L80.4713 36.9408C80.2153 37.316 79.9596 37.691 79.7071 38.067C79.6103 38.2138 79.4756 38.3298 79.2982 38.4826L79.2982 38.4827C79.1931 38.5732 79.073 38.6766 78.9369 38.807C78.9466 38.6855 78.9538 38.581 78.9601 38.4896L78.9601 38.489C78.9791 38.2143 78.9899 38.0573 79.0332 37.9113C79.1385 37.5149 79.242 37.1185 79.3454 36.7227L79.3456 36.7217L79.3459 36.7207L79.3462 36.7197L79.3464 36.7188L79.3467 36.7178L79.3469 36.7168L79.3472 36.7159L79.3474 36.7149L79.3477 36.7139L79.3479 36.7129L79.3482 36.712L79.3484 36.7112C79.5842 35.8081 79.8193 34.9078 80.0729 34.0169C80.2418 33.412 80.4216 32.8094 80.6014 32.2065L80.6014 32.2065C81.1798 30.2671 81.7586 28.3263 81.979 26.3061C82.0367 25.7414 82.0752 25.1767 82.056 24.6121C82.0175 23.9111 81.6324 23.4243 80.9585 23.2101C80.3424 22.9959 79.7841 23.1712 79.3413 23.6385C79.091 23.8916 78.8792 24.1642 78.6674 24.4563C78.3964 24.8388 78.1315 25.2296 77.8661 25.6212C77.3208 26.4259 76.7731 27.2341 76.1645 27.9807C74.9503 29.4797 73.6716 30.9265 72.3917 32.3745L72.3915 32.3748L72.3914 32.375L72.3912 32.3752C72.1085 32.695 71.8258 33.0149 71.5437 33.3354C71.3925 33.5137 71.2167 33.6837 71.0269 33.8672C70.9265 33.9642 70.8223 34.0649 70.7158 34.1727C70.0419 31.7387 70.2537 29.0711 71.2164 27.0071C71.4282 26.5592 71.7362 26.3451 72.2175 26.1893C72.9492 25.9556 73.1032 25.2352 72.6026 24.6705C72.3716 24.4173 72.0635 24.2032 71.7555 24.0474C69.7531 23.0543 67.77 23.5022 66.5186 25.4299C65.6294 26.7954 64.867 28.2465 64.1108 29.6855L64.1096 29.6879C63.982 29.9306 63.8546 30.173 63.7269 30.4146C63.2076 31.4049 62.7341 32.4182 62.2623 33.4279C62.1218 33.7287 61.9814 34.0291 61.84 34.3285C61.455 35.1365 61.0795 35.9543 60.7041 36.7722C60.3286 37.59 59.9532 38.4078 59.5681 39.2159C58.8424 40.715 58.0919 42.2141 57.3465 43.7032C57.1624 44.0709 56.9787 44.438 56.7957 44.8043C56.6886 45.0208 56.5444 45.2091 56.4017 45.3953L56.4016 45.3954C56.339 45.4771 56.2768 45.5584 56.2181 45.6415C56.1892 45.6221 56.1555 45.6075 56.1219 45.5929L56.1218 45.5929L56.1217 45.5928C56.0881 45.5782 56.0544 45.5636 56.0255 45.5442C56.0439 45.4561 56.0611 45.3679 56.0783 45.2801C56.1333 44.9991 56.1878 44.7208 56.2758 44.4538C56.4612 43.8288 56.659 43.2163 56.8593 42.5963L56.862 42.5877C56.9104 42.4379 56.9589 42.2876 57.0075 42.1366C57.2696 41.3222 57.5399 40.5079 57.8104 39.6928L57.8105 39.6923L57.8106 39.6922L57.8106 39.6921L57.8106 39.692L57.8107 39.6919L57.8107 39.6918L57.8108 39.6916L57.8108 39.6915L57.8108 39.6914L57.8109 39.6913L57.8109 39.6912C58.3745 37.9929 58.9391 36.2917 59.4334 34.5816C59.7222 33.5496 59.8377 32.4397 59.8762 31.3493C59.9147 30.3173 59.4141 29.5189 58.4129 29.1295C57.3733 28.7206 56.3528 28.5648 55.4865 29.4605C54.6778 30.2783 53.8692 31.1156 53.1375 32.0113C51.6936 33.7832 50.6154 35.8278 49.5564 37.8528C49.412 38.1255 49.2628 38.3981 49.1136 38.6707C48.9644 38.9433 48.8152 39.2159 48.6708 39.4885C48.5938 39.4495 48.536 39.43 48.459 39.4106C48.4707 39.304 48.4842 39.1956 48.4979 39.0859C48.5291 38.835 48.5611 38.5776 48.5745 38.3202C48.5981 37.9765 48.624 37.6316 48.65 37.2861C48.7299 36.2224 48.8103 35.1531 48.8248 34.0948C48.8441 33.3549 48.459 33.0044 47.7659 32.8681C47.092 32.7318 46.7455 32.8486 46.3989 33.5496C45.9368 34.5037 45.4747 35.4773 45.1474 36.4704C43.8767 40.4815 41.8936 44.1227 39.7565 47.7055C38.9671 49.0296 38.1392 50.3342 37.3113 51.6388C37.3113 50.9963 37.4654 50.3926 37.6387 49.789C37.9635 48.6689 38.2969 47.5517 38.6301 46.4351L38.6302 46.4347L38.6307 46.433L38.6307 46.4329L38.6308 46.4328L38.6308 46.4327C39.1662 44.6385 39.701 42.8461 40.1993 41.0462C40.7384 39.099 41.1427 37.1129 41.1427 35.0879C41.1427 34.2116 40.854 33.8611 40.0261 33.6859C39.1789 33.4912 38.8516 33.6469 38.428 34.4453C38.2934 34.6982 38.178 34.9511 38.0626 35.2039L38.0626 35.204L38.0625 35.2041L38.0625 35.2041L38.0625 35.2042L38.0624 35.2043L38.0624 35.2043L38.0624 35.2044L38.0623 35.2045L38.0623 35.2046L38.0623 35.2046L38.0622 35.2047C33.9228 43.9086 29.1865 52.223 22.9291 59.5638C22.8257 59.6833 22.7563 59.8487 22.6861 60.016C22.6648 60.0667 22.6435 60.1176 22.6211 60.1674C23.2372 60.7127 23.8148 60.479 24.3539 60.2453C26.2985 59.3886 27.8772 58.0645 29.0902 56.3315C29.7237 55.4444 30.3032 54.5183 30.8825 53.5927L30.8825 53.5927C31.2187 53.0555 31.5547 52.5185 31.9012 51.9893C31.9852 51.8558 32.0842 51.7373 32.1982 51.601L32.1982 51.601L32.1984 51.6008C32.2672 51.5186 32.3414 51.4298 32.421 51.3273C33.0179 53.5471 34.1153 54.5206 36.1754 54.7738C36.907 54.8711 37.5809 54.7154 38.0622 54.1117C38.1602 53.9917 38.2585 53.8716 38.3571 53.7514C38.898 53.0914 39.4442 52.4249 39.949 51.7167C40.3893 51.1045 40.7804 50.4724 41.1926 49.8062L41.1928 49.8059C41.3573 49.5399 41.5253 49.2685 41.7011 48.9907C41.7716 49.1975 41.8292 49.3939 41.8843 49.5818L41.8844 49.582C41.9797 49.9069 42.0675 50.2063 42.2017 50.49C42.837 51.892 44.7046 52.1451 45.5903 50.9184C46.3989 49.789 47.2075 48.6207 47.8814 47.394C48.9788 45.3963 50.0554 43.3775 51.132 41.3587C51.8498 40.0128 52.5676 38.6668 53.2916 37.3271C53.4454 37.0354 53.6185 36.7632 53.7915 36.491L53.7916 36.4908L53.7916 36.4907L53.7917 36.4906L53.7918 36.4905L53.7918 36.4904L53.7919 36.4903L53.7919 36.4902L53.792 36.4901L53.792 36.49L53.7921 36.4899L53.7922 36.4898C53.8615 36.8757 53.7747 37.1668 53.6864 37.4626L53.671 37.5144L53.6574 37.5608L53.6573 37.561L53.6572 37.5612L53.6572 37.5615L53.6571 37.5617L53.657 37.5619L53.657 37.5621L53.6569 37.5624L53.6568 37.5626L53.6568 37.5628L53.6567 37.5631L53.6566 37.5633C53.1563 39.1007 52.656 40.6381 52.1749 42.195C51.8668 43.227 51.7513 44.2785 51.8668 45.3495C51.9823 46.4399 52.3674 47.4135 53.2338 48.1144C54.7933 49.3996 56.3336 49.1659 57.3925 47.4719C57.4296 47.4044 57.4695 47.337 57.51 47.2684C57.5749 47.1589 57.6414 47.0464 57.7006 46.9267C57.9931 46.3429 58.2825 45.759 58.5712 45.1765L58.5713 45.1763C59.0049 44.3016 59.4371 43.4298 59.8762 42.565C61.378 39.5858 62.899 36.5872 64.42 33.608C64.5605 33.3357 64.7081 33.0634 64.8628 32.7779L64.8633 32.7769C64.9629 32.5932 65.0654 32.4041 65.1709 32.206C65.2158 32.2774 65.2543 32.3337 65.2864 32.3806C65.3505 32.4743 65.3891 32.5306 65.4019 32.5955C65.6713 34.4835 65.9215 36.3716 66.1717 38.2597L66.172 38.2617C66.2259 38.6611 66.012 38.9251 65.78 39.2114L65.7292 39.2743C64.9013 40.3258 64.0927 41.3772 63.3033 42.4676C62.7642 43.227 62.5139 44.1227 62.4176 45.0379C62.2444 46.6346 63.5343 47.9197 65.0938 47.5887C67.1154 47.1798 68.7327 46.1673 69.5221 44.1033C70.196 42.3119 70.7736 40.501 70.7928 38.5538C70.7928 38.2617 70.8698 37.8918 71.0623 37.6971C72.025 36.704 73.0454 35.7304 74.0659 34.7568C74.0851 34.7374 74.1814 34.7763 74.2199 34.7958C74.207 35.0119 74.1896 35.228 74.1724 35.4433L74.1724 35.4436L74.1723 35.4438L74.1723 35.4441L74.1723 35.4443L74.1723 35.4446L74.1722 35.4448L74.1722 35.4451L74.1721 35.4463V35.4464V35.4465V35.4466V35.4467V35.4468V35.4469V35.447V35.4471V35.4472V35.4473C74.1381 35.871 74.1044 36.2918 74.1044 36.704C74.1044 39.1574 75.9334 41.2799 78.3208 41.6498C79.168 41.7861 79.9381 41.6109 80.535 40.9878C81.0356 40.4621 81.5169 39.8974 81.9405 39.2938C83.423 37.1324 84.6167 34.8153 85.6756 32.4202C85.7798 32.1642 85.9071 31.9199 86.0752 31.5971C86.1245 31.5025 86.1772 31.4012 86.2339 31.2909C86.3582 31.5842 86.4491 31.8155 86.5275 32.0152L86.5277 32.0156L86.5278 32.0159L86.5278 32.0159L86.528 32.0163C86.5951 32.1873 86.6532 32.335 86.7153 32.4786C87.0811 33.2965 87.4854 34.0753 88.2748 34.5621C90.2194 35.7694 92.3757 35.5941 93.8005 33.7054C94.1526 33.2475 94.4554 32.7648 94.784 32.2409L94.7842 32.2406L94.7843 32.2404ZM91.219 32.4768C91.086 32.6661 90.9502 32.8596 90.8162 33.0628C89.507 29.9863 92.241 22.9375 95.591 20.6788C96.4382 21.4771 96.6115 22.1002 96.1686 22.9764C94.8017 25.7414 93.3962 28.5064 91.9907 31.2519C91.78 31.678 91.5064 32.0676 91.219 32.4768ZM111.186 19.0042C112.977 17.5244 114.806 14.0194 114.575 12.5591C112.726 14.3894 111.764 16.5897 111.186 19.0042ZM66.0565 42.9739C64.9398 43.8891 64.4007 45.0963 64.6703 46.2062C65.5752 45.291 65.9602 44.2396 66.0565 42.9739ZM18.8103 73.9512C18.625 74.2457 18.4229 74.567 18.1918 74.9467C18.0378 74.3626 17.9415 74.0121 17.749 73.72C17.6833 73.4903 17.625 73.2569 17.5666 73.0233C17.4369 72.5041 17.3068 71.9836 17.0944 71.5002C16.8056 70.8382 16.4205 70.1567 15.9392 69.6309C15.3038 68.9299 14.5915 69.0857 14.1679 69.923C14.0331 70.1956 13.9176 70.4877 13.8213 70.7992L13.8213 70.7994C13.4555 71.9482 13.0897 73.097 12.7817 74.2457C11.1066 80.5351 9.75889 86.8829 8.85399 93.328C8.71921 94.1653 8.68071 95.0221 8.69996 95.8593C8.73847 96.7356 9.02727 97.0276 9.7974 97.1639C10.6638 97.3197 11.1259 97.125 11.4724 96.3072C11.7227 95.723 11.9345 95.1194 12.0693 94.4963C12.8779 90.7188 13.6673 86.9608 14.4374 83.1833C14.6496 82.1909 14.8344 81.1893 15.0232 80.1658C15.1085 79.7031 15.1947 79.236 15.2846 78.7632C15.3587 78.806 15.4285 78.8474 15.4951 78.8869C15.6706 78.991 15.8242 79.082 15.9777 79.1526C17.3447 79.7562 18.6347 79.7368 19.5203 78.2374C19.8401 77.689 20.19 77.1609 20.541 76.6312C20.6761 76.4273 20.8113 76.2232 20.945 76.0177C21.2146 75.5893 21.5034 75.1609 21.7922 74.7325C21.9655 74.9856 21.9847 75.1804 21.9655 75.3751C21.7826 76.9326 21.5901 78.4949 21.3976 80.0573L21.3975 80.0577L21.3975 80.0582C21.205 81.6208 21.0124 83.1833 20.8295 84.741C20.6562 86.2403 20.5215 87.7591 20.4637 89.2779C20.406 90.7383 21.1568 91.6145 22.5816 91.8287C22.9666 91.8871 23.3517 91.8871 23.7368 91.8676C24.3914 91.8482 24.8535 91.5366 25.1423 90.933C25.2241 90.7617 25.3064 90.5901 25.3888 90.418C25.8687 89.4165 26.3544 88.4028 26.798 87.3891C27.5039 85.7666 28.1927 84.1441 28.8815 82.5216L28.8817 82.5211C29.2261 81.7098 29.5705 80.8985 29.9171 80.0872C29.9573 79.9786 30.0257 79.8795 30.083 79.7964C30.1078 79.7603 30.1306 79.7273 30.1481 79.6978C31.0821 79.7475 31.9743 79.8113 32.8958 79.8773L32.897 79.8773L33.3827 79.912C34.0373 81.5671 34.4801 83.2806 34.4031 85.1304C34.3453 86.2598 34.6149 86.5324 35.6931 86.8245C37.2526 87.2334 37.9264 86.8245 38.119 85.2083C38.2987 83.7544 38.4441 82.3006 38.5896 80.8467C38.6623 80.1197 38.7351 79.3928 38.8121 78.6658C38.8154 78.636 38.8184 78.6063 38.8213 78.5767C38.8247 78.5414 38.828 78.5061 38.8312 78.471C38.8731 78.0161 38.9128 77.5854 39.3512 77.2444C40.5256 76.3097 41.3343 75.0635 42.0852 73.7784C42.1718 73.6324 42.2632 73.4912 42.3547 73.3501L42.3548 73.3499L42.3549 73.3496L42.3551 73.3494L42.3552 73.3492L42.3553 73.349L42.3554 73.3488L42.3556 73.3486L42.3557 73.3484L42.3558 73.3482C42.4469 73.2076 42.538 73.0671 42.6242 72.9216C42.7398 73.2332 42.7205 73.5058 42.6628 73.7784C42.4881 74.6782 42.3027 75.5744 42.1174 76.47L42.1173 76.4705L42.1172 76.4709L42.1171 76.4714L42.117 76.4719L42.117 76.4723L42.1169 76.4728L42.1168 76.4732L42.1167 76.4737L42.1166 76.4742L42.1165 76.4746C41.873 77.6513 41.6298 78.8272 41.4113 80.0094C41.3679 80.2623 41.3205 80.5152 41.2731 80.7683L41.2731 80.7684L41.2731 80.7685L41.273 80.7686L41.273 80.7687L41.273 80.7688L41.273 80.7689L41.273 80.769L41.273 80.7691C41.0466 81.9772 40.8193 83.19 41.0262 84.4294C41.1802 85.442 41.5653 85.8119 42.7013 85.9872C43.7024 86.143 44.3185 85.8703 44.6843 85.0136C45.0117 84.2737 45.2812 83.4948 45.4545 82.7159C45.6375 81.9631 45.7664 81.1869 45.8951 80.4119C45.9695 79.9641 46.0437 79.5168 46.1283 79.0747L46.1285 79.0741C46.398 77.6528 46.6675 76.2316 46.9562 74.7909C47.1268 74.9456 47.2937 75.0911 47.456 75.2326C47.8249 75.5543 48.1697 75.8548 48.4772 76.1929C50.21 78.0622 52.3857 78.6658 54.8501 78.51C56.3326 78.4127 57.5455 77.8091 58.5082 76.6797L58.5082 76.6796L58.5085 76.6793L58.5087 76.6791L58.5088 76.6791C58.7589 76.4067 59.009 76.1342 59.3361 75.7645C59.3756 75.9577 59.4061 76.135 59.4346 76.3002L59.4346 76.3002C59.4892 76.6178 59.5362 76.8908 59.6249 77.147C59.7212 77.4391 59.8752 77.7701 60.1062 77.9259C60.9726 78.51 62.4359 78.179 62.7439 77.3028C62.975 76.6797 63.1868 76.0371 63.3408 75.3946C63.8805 73.0552 64.0744 70.6909 64.2687 68.3216C64.317 67.7327 64.3653 67.1436 64.419 66.5544C64.4382 66.3305 64.4623 66.1115 64.4863 65.8925C64.5104 65.6734 64.5345 65.4543 64.5537 65.2303C64.9563 65.7083 65.1998 66.1863 65.4432 66.6642L65.5164 66.8075C66.1133 67.9758 66.9989 68.8521 68.2119 69.3583C71.5619 70.7603 74.912 69.7672 76.9529 66.7491L76.9529 66.749C77.1454 66.4764 77.338 66.2039 77.646 65.795V67.2943C77.646 67.4813 77.6398 67.6652 77.6336 67.8484V67.8486V67.8488V67.849V67.8492V67.8493V67.8495V67.8497V67.8499V67.8501V67.8504C77.6244 68.1245 77.6152 68.3971 77.6267 68.6768C77.6652 69.8256 78.0888 70.3903 79.2055 70.5461C79.9949 70.6435 80.8613 70.7213 81.5929 70.4877C83.499 69.8841 85.2895 69.0078 86.8875 67.7616C87.0816 67.6047 87.2408 67.3862 87.4062 67.1594L87.4062 67.1593C87.487 67.0485 87.5692 66.9356 87.6577 66.827C87.1186 66.2818 86.618 66.3792 86.1174 66.5933C84.7504 67.197 83.3642 67.8006 81.978 68.3847C81.7956 68.4616 81.6012 68.5263 81.3569 68.6077C81.2917 68.6293 81.223 68.6522 81.1501 68.6768C81.3027 65.706 81.7576 62.9454 82.2154 60.1679L82.2282 60.0898C84.2884 59.7393 86.0019 58.8631 87.8695 57.7532C86.4325 57.0058 85.2096 57.4193 84.0278 57.8188C83.5469 57.9814 83.0729 58.1417 82.5941 58.2205C82.7673 56.6238 82.9406 55.0466 83.1139 53.4694C83.2872 51.8922 83.4605 50.315 83.6337 48.7183C85.5049 48.1035 87.3432 47.3655 89.1973 46.6212L89.1974 46.6212C91.1016 45.8567 93.0224 45.0856 95.0124 44.4345C94.8763 44.9469 94.7373 45.4322 94.6022 45.9035L94.6021 45.9039C94.3933 46.6325 94.1942 47.3275 94.0305 48.0368C93.2026 51.6196 92.702 55.2608 92.394 58.9215C92.2592 60.6155 92.4132 62.3096 92.6828 63.9841C92.7598 64.5099 92.9523 64.9188 93.5492 65.0356C94.1845 65.1524 94.7429 64.9577 95.0894 64.4125C95.205 64.2373 95.3012 64.0425 95.3782 63.8478C95.9943 62.4069 96.3794 60.9076 96.5334 59.3499C96.726 57.3053 96.9233 55.2657 97.1207 53.226C97.318 51.1863 97.5154 49.1467 97.7079 47.1021C97.7175 47.0016 97.7277 46.9009 97.7378 46.8001C97.8497 45.6907 97.963 44.5676 97.3806 43.4609C97.5859 43.3807 97.7856 43.3039 97.9808 43.2288L97.9876 43.2262L97.9879 43.2261C98.595 42.9926 99.1581 42.7761 99.7102 42.5263C100.731 42.059 101.732 41.5527 102.714 41.027C102.86 40.9596 102.97 40.8176 103.087 40.6656C103.14 40.5979 103.194 40.5283 103.253 40.4623C102.444 40.0144 101.905 39.8587 100.962 40.1507C99.0171 40.7349 97.0918 41.358 95.1857 42.059C92.7557 42.9469 90.3385 43.8864 87.9237 44.825C87.3729 45.0391 86.8222 45.2531 86.2714 45.4665C85.0585 45.9338 83.8648 46.4206 82.6711 46.9074C82.5569 46.9555 82.4439 47.006 82.3315 47.0562C81.989 47.2093 81.652 47.3599 81.3041 47.4332C80.7072 47.5695 80.4569 47.92 80.2837 48.4846C78.9359 52.8463 77.5882 57.1885 76.2212 61.5307C75.7014 63.1663 75.0468 64.7241 74.0841 66.126C73.6798 66.7102 73.237 67.2554 72.7364 67.7422C71.9085 68.5405 71.2731 68.521 70.4837 67.6643C70.1161 67.2628 69.8047 66.7817 69.4979 66.3079C69.403 66.1614 69.3086 66.0155 69.213 65.8729C68.8762 65.3667 68.5393 64.8557 68.1976 64.3373L68.1972 64.3366C67.8555 63.8183 67.509 63.2927 67.1529 62.7574C67.2002 62.7175 67.2702 62.6581 67.3521 62.5883L67.3552 62.5858C67.4727 62.4858 67.6145 62.3651 67.7498 62.2511C70.503 59.9535 72.5246 57.1301 73.8338 53.7615C73.9878 53.372 74.1226 52.9437 74.1804 52.5348C74.2959 51.8727 74.0071 51.5222 73.3525 51.4638C72.7556 51.4054 72.2551 51.6585 71.8892 52.1259C71.4913 52.6451 71.1105 53.1817 70.7297 53.7183C70.5393 53.9865 70.349 54.2548 70.1564 54.5209C68.6739 56.5654 67.1722 58.6099 65.6704 60.6545C65.5644 60.7855 65.4296 60.9019 65.2704 61.0395L65.2704 61.0395L65.2703 61.0396C65.1692 61.1269 65.0584 61.2226 64.9388 61.336V59.7782V59.7758C64.9388 57.6931 64.9388 55.6105 64.9196 53.5278C64.9196 53.2357 64.8233 52.8268 64.6308 52.6711C63.8799 52.0869 63.0135 52.1258 62.1278 52.34C61.3577 52.5348 61.2229 53.1384 61.1267 53.7809L61.0495 54.2741C60.536 57.558 60.02 60.8578 59.4516 64.1399C58.874 67.5475 57.9306 70.8966 56.5444 74.0705C56.1593 74.9272 55.5817 75.7061 54.9849 76.4266C54.388 77.1275 54.0029 77.1275 53.2521 76.5629C52.3042 75.8512 51.5384 74.9769 50.779 74.1099L50.7789 74.1098L50.7788 74.1097L50.7788 74.1097L50.7787 74.1096L50.7774 74.1081C50.5193 73.8134 50.2619 73.5196 49.9983 73.2332L50.0433 73.1529C50.0842 73.0798 50.099 73.0534 50.1138 73.0385C50.2485 72.9314 50.3881 72.8243 50.5276 72.7173C50.6672 72.6102 50.8069 72.503 50.9417 72.3959C53.2136 70.624 55.1004 68.521 56.2171 65.795C56.8332 64.2957 56.7369 62.8353 56.1593 61.3749C55.8512 60.6155 55.3699 59.9535 54.6383 59.5446C52.5782 58.4347 49.2666 58.2594 47.322 60.0508C47.091 60.265 46.7252 60.4403 46.4171 60.4403C45.647 60.4403 45.1849 60.8297 44.8576 61.4723C44.4932 62.19 44.124 62.9077 43.7548 63.6254L43.7544 63.6262L43.7539 63.627L43.7535 63.6278L43.7531 63.6287L43.7527 63.6295L43.7523 63.6303L43.7518 63.6311L43.7514 63.632L43.751 63.6328L43.7506 63.6336L43.7497 63.6353L43.7483 63.638C43.3784 64.357 43.0086 65.076 42.6435 65.795C41.6423 67.7616 40.6412 69.7478 39.64 71.7339C39.5666 71.87 39.4621 71.9982 39.3315 72.1585L39.3313 72.1587L39.3312 72.1588L39.3309 72.1591L39.3309 72.1592L39.3301 72.1602C39.2555 72.2518 39.1723 72.3538 39.0816 72.4738C39.0588 72.2085 39.0495 72.0115 39.0417 71.8465C39.0364 71.7329 39.0317 71.6344 39.0239 71.5392C38.9438 70.8251 38.872 70.1083 38.8001 69.3908L38.8001 69.3906C38.6819 68.2103 38.5634 67.0281 38.4078 65.8534C38.3308 65.2303 38.119 64.5878 37.8302 64.0425C37.1756 62.8158 35.7316 62.7185 34.9229 63.8284C34.4994 64.432 34.095 65.0745 33.787 65.7366C33.5544 66.2254 33.3216 66.7142 33.0888 67.2031C31.3551 70.843 29.6189 74.4883 27.9725 78.179C27.2513 79.817 26.5966 81.4802 25.9428 83.141C25.6018 84.0073 25.261 84.873 24.9112 85.734C24.815 85.9677 24.6994 86.1819 24.5839 86.3961C24.7919 84.4184 25.0505 82.4579 25.3081 80.5051C25.5273 78.8433 25.7458 77.1871 25.9316 75.5309C26.2204 72.9801 26.3745 70.3903 26.5092 67.8201C26.567 66.6907 26.1434 66.3207 25.046 66.165C24.2181 66.0481 23.525 66.2039 23.0437 66.9828C22.8241 67.3317 22.5949 67.6775 22.3653 68.0239C22.0311 68.5281 21.696 69.0337 21.3879 69.553C20.9876 70.2277 20.5938 70.9154 20.1989 71.6048L20.1988 71.6051C19.9099 72.1094 19.6206 72.6146 19.3278 73.1164C19.1641 73.389 18.9957 73.6567 18.8103 73.9512ZM47.5584 71.0805C47.5475 71.0719 47.5369 71.0635 47.5264 71.0554C47.516 71.0474 47.5056 71.0398 47.4953 71.0329L47.5442 70.5558C47.701 69.0241 47.8564 67.5069 47.9959 65.9897C48.0729 65.1524 48.1114 64.2957 48.1114 63.4584C48.0922 62.8548 48.2655 62.3485 48.689 61.9396C48.8395 61.7935 48.9863 61.6416 49.1328 61.4901C49.4548 61.1568 49.7757 60.8248 50.133 60.5571C51.0764 59.8561 51.9621 60.1287 52.3664 61.2386C52.8092 62.4459 52.9055 63.7115 52.3664 64.9382C51.577 66.7491 50.5373 68.4042 49.0933 69.7867C48.6121 70.2345 48.1501 70.7017 47.6881 71.1689L47.6879 71.1692C47.6385 71.1442 47.597 71.1113 47.5584 71.0806L47.5584 71.0805ZM33.1159 76.3678C32.6777 76.1243 32.2216 75.8707 31.7269 75.5893C32.0826 74.7755 32.4383 73.9599 32.7945 73.143L32.7956 73.1404L32.7967 73.1379L32.7978 73.1354L32.7989 73.1328L32.8 73.1303L32.8012 73.1277L32.8023 73.1252L32.8034 73.1227L32.8045 73.1201L32.8056 73.1176L32.8057 73.1173C33.622 71.2455 34.4411 69.3673 35.2695 67.489C35.2984 67.489 35.3272 67.4939 35.3561 67.4988L35.3563 67.4988C35.3851 67.5037 35.4139 67.5085 35.4428 67.5085C35.4498 67.5793 35.4593 67.6474 35.4686 67.714C35.4849 67.8306 35.5005 67.9421 35.5005 68.0537C35.4535 69.3666 35.4065 70.6749 35.3594 71.983L35.3592 71.9888L35.3561 72.0746L35.3531 72.1602L35.3526 72.1724L35.3524 72.1782C35.3055 73.4824 35.2586 74.7866 35.2117 76.0955C35.2117 76.2708 35.1925 76.446 35.154 76.6213C35.0192 77.147 34.7111 77.2638 34.2298 76.9912C33.863 76.7831 33.4962 76.5792 33.1159 76.3678ZM31.7635 77.4766C31.9762 77.5988 32.1738 77.7123 32.4778 77.9064C32.0131 78.0108 31.7977 78.0593 31.7007 77.9736C31.6169 77.8995 31.6217 77.7252 31.6306 77.4001L31.7635 77.4766ZM68.5199 80.7293C67.4995 82.1118 67.2492 83.5722 67.384 85.1299C67.5958 87.5055 68.5969 89.5889 69.8484 91.6919C69.8699 91.6701 69.8908 91.6493 69.9112 91.6292L69.9401 91.6007L69.979 91.5625C70.0897 91.454 70.1771 91.3685 70.2335 91.283C73.1792 86.6682 75.6051 81.7808 77.8385 76.7766C78.0695 76.2313 78.4161 75.9782 78.936 75.9782C79.321 75.9782 79.7061 76.0366 80.0719 76.1535C80.8035 76.3871 81.0346 76.6792 80.9961 77.4775C80.919 79.2105 80.8035 80.9435 80.6687 82.657C80.5686 83.911 80.4624 85.165 80.3561 86.419C80.1967 88.2999 80.0372 90.1809 79.8986 92.0619C79.8409 92.8213 79.9371 93.6001 80.1682 94.4569C80.2142 94.3987 80.2636 94.3422 80.313 94.286C80.4287 94.154 80.5435 94.0229 80.611 93.8727C80.7795 93.4813 80.9501 93.091 81.1206 92.7009C81.671 91.4418 82.2199 90.186 82.6903 88.9074C83.1674 87.6089 83.6139 86.3013 84.06 84.9945C85.0722 82.0297 86.0828 79.0695 87.4459 76.2313C88.2738 74.5373 89.198 72.9406 90.4302 71.5192C91.5469 70.234 92.9716 69.8057 94.5889 70.0393C95.4168 70.1562 96.2062 70.4482 96.572 71.4608C95.4832 71.7699 95.1145 72.6923 94.7516 73.6005L94.7429 73.6221C93.4915 76.6403 92.8753 79.8336 92.2977 83.027C91.9704 84.8184 91.9319 86.6098 92.2977 88.4012C92.3089 88.4802 92.333 88.5527 92.3664 88.6529C92.3783 88.6888 92.3915 88.7283 92.4056 88.773C92.42 88.8184 92.4355 88.8692 92.4518 88.9269C92.9771 88.4488 93.2317 87.8901 93.4762 87.3535L93.4766 87.3525C93.5008 87.2994 93.5249 87.2465 93.5492 87.1939C94.367 85.2918 95.1654 83.3799 95.965 81.4651L95.9652 81.4647C96.2951 80.6747 96.6253 79.8842 96.957 79.0937L97.7079 77.3412C97.9967 76.6208 98.5358 76.3287 99.2867 76.3676C99.3501 76.3717 99.4143 76.3748 99.479 76.378C99.7286 76.3904 99.9854 76.4031 100.23 76.465C101.385 76.7376 101.79 77.1465 101.809 78.3538C101.847 80.0089 101.828 81.6834 101.751 83.3385C101.674 85.0715 101.559 86.8045 101.347 88.518C101.251 89.3163 100.962 90.0952 100.654 90.8351C100.346 91.5361 99.7488 91.7503 98.8824 91.6335C98.016 91.5166 97.5732 91.1662 97.4191 90.3678C97.3338 89.9651 97.2695 89.5625 97.1952 89.0971C97.1688 88.9323 97.1413 88.7597 97.1111 88.5764C96.9607 88.7894 96.822 88.9815 96.6917 89.1622C96.4883 89.444 96.3052 89.6979 96.1292 89.9589C94.0113 93.1912 89.1595 91.6724 88.2738 89.0437L88.2732 89.0419L88.2729 89.0411C88.0229 88.3215 87.7729 87.6018 87.4844 86.7461C87.4244 86.8826 87.3673 87.0015 87.3154 87.1095C87.2341 87.2787 87.1656 87.4213 87.1186 87.5639C86.8986 88.1597 86.689 88.7608 86.4793 89.3624C86.1201 90.3925 85.7606 91.4238 85.3473 92.4318C84.8275 93.6585 84.1921 94.8463 83.5182 95.9951C82.8251 97.1829 81.8432 97.9618 80.3607 97.8839C78.7434 97.7865 77.3572 97.2413 76.4523 95.8004C75.7399 94.6711 75.4319 93.4054 75.3933 92.0619C75.3807 91.5254 75.3847 90.9973 75.3889 90.4336V90.4324C75.3911 90.1372 75.3933 89.8322 75.3933 89.5111C75.3222 89.607 75.2543 89.6931 75.191 89.7733L75.1909 89.7734C75.1 89.8887 75.0186 89.9919 74.9505 90.0952C74.6679 90.5267 74.3867 90.9597 74.1053 91.3929L74.1039 91.3952C73.37 92.5253 72.6351 93.657 71.87 94.7684C71.5619 95.2163 71.4657 95.6057 71.5812 96.1315C71.9663 97.8839 71.8892 99.6364 71.6004 101.408C71.3501 102.966 70.5415 104.076 69.0975 104.68C67.7883 105.244 66.4791 105.653 65.0351 105.205C64.1109 104.913 63.5718 104.329 63.3793 103.355C63.129 102.109 63.36 100.941 64.0339 99.909C64.6885 98.9548 65.3816 98.0202 66.1518 97.144C66.6716 96.5404 66.8834 95.9757 66.5753 95.2357C66.3837 94.7794 66.2001 94.3171 66.016 93.8539L66.0159 93.8536C65.6268 92.874 65.2361 91.8905 64.7655 90.952C63.9184 89.1995 63.129 87.4276 62.8979 85.4609C62.7054 83.8837 62.9557 82.3649 63.7258 80.9435C64.419 79.6584 65.5164 78.9963 66.9411 78.9184C68.0386 78.86 69.136 78.9379 70.0794 79.5221C70.5608 79.8141 70.9651 80.3009 71.2924 80.7682C71.4272 80.963 71.3887 81.4498 71.2346 81.625C71.0806 81.8003 70.6378 81.8587 70.3875 81.7808C70.0776 81.6811 69.7883 81.5084 69.5045 81.339C69.4004 81.2768 69.2971 81.2152 69.1938 81.1577C69.0679 81.0686 68.9503 80.9961 68.7978 80.9022C68.7171 80.8525 68.6266 80.7967 68.5199 80.7293ZM66.248 103.531C67.2107 102.732 67.2684 101.72 67.307 100.513C66.171 101.545 65.9015 102.323 66.248 103.531ZM117.478 44.189L117.479 44.1877L117.479 44.1864L117.479 44.1853L117.479 44.1842L117.479 44.1832L117.479 44.1822C117.492 43.8889 117.506 43.5963 117.52 43.3049C117.559 43.2952 117.597 43.2903 117.636 43.2854C117.674 43.2806 117.713 43.2757 117.751 43.266C117.975 43.7522 118.191 44.2409 118.407 44.7285L118.407 44.7287L118.407 44.7288L118.407 44.729L118.407 44.7291L118.407 44.7292L118.407 44.7294L118.408 44.7298L118.408 44.7303L118.408 44.7305C118.805 45.6287 119.202 46.5236 119.638 47.394C120.716 49.5359 121.833 51.6583 122.988 53.7612C123.816 55.2411 125.26 55.319 126.781 54.9685C127.397 54.8322 127.705 54.4427 127.782 53.7807C127.975 52.1061 128.187 50.4121 128.418 48.7375C128.716 46.5863 129.024 44.4351 129.332 42.2839C129.64 40.1318 129.948 37.9798 130.247 35.8278C130.362 34.9126 130.42 33.9974 130.42 33.0822C130.42 32.7902 130.208 32.3618 129.977 32.206C129.226 31.6998 128.033 32.0502 127.667 32.907C127.378 33.5496 127.128 34.2311 126.993 34.9126C126.444 37.6723 125.928 40.4319 125.412 43.1916C125.24 44.1121 125.068 45.0326 124.894 45.9531L124.721 46.8293C124.376 46.5503 124.217 46.24 124.063 45.9405C124.045 45.9055 124.027 45.8708 124.009 45.8362C122.353 42.6039 120.543 39.469 118.387 36.5287C118.262 36.3438 118.16 36.1442 118.059 35.9446C117.958 35.745 117.857 35.5454 117.732 35.3604C117.559 35.0878 117.328 34.7763 117.039 34.6595C116.673 34.5037 116.211 34.4842 115.807 34.4842C114.709 34.5232 114.42 34.7763 114.112 35.8278C113.638 37.4301 113.165 39.0324 112.693 40.6347L112.692 40.6372C111.746 43.8436 110.801 47.0499 109.838 50.2563C109.299 52.0867 108.702 53.8975 108.067 55.6889C107.803 56.4592 107.425 57.1914 107.047 57.9265C106.956 58.1019 106.866 58.2775 106.777 58.4539C106.729 58.5639 106.627 58.6432 106.473 58.764C106.381 58.8357 106.271 58.922 106.142 59.0381C106.276 56.351 106.392 53.917 106.507 51.483C106.526 51.0616 106.545 50.6397 106.564 50.2175C106.664 48.0252 106.764 45.8237 106.796 43.6359C106.815 42.9934 106.642 42.2729 106.353 41.7082C105.891 40.7736 104.698 40.7152 104.101 41.5719C103.793 41.9808 103.562 42.5066 103.504 43.0128C103.416 43.6892 103.328 44.3656 103.239 45.0421L103.239 45.0423L103.239 45.0426L103.239 45.0428L103.239 45.043L103.239 45.0432L103.239 45.0434L103.238 45.0436L103.238 45.0439C102.877 47.7945 102.515 50.5477 102.252 53.3134C102.109 54.6783 102.15 56.0564 102.19 57.426L102.19 57.4278L102.19 57.4295L102.19 57.4313C102.199 57.7207 102.207 58.0097 102.214 58.2981C102.252 59.5833 102.849 60.5568 104.12 60.9073C104.775 61.1021 105.506 61.1605 106.18 61.1021C107.817 60.9268 109.145 60.1285 109.896 58.6486C110.496 57.4905 110.996 56.2914 111.496 55.0885L111.496 55.0884L111.496 55.0883L111.497 55.0882L111.497 55.0881L111.497 55.088L111.497 55.0879L111.497 55.0878L111.497 55.0877C111.686 54.6324 111.876 54.1766 112.072 53.7223C112.139 53.547 112.202 53.3718 112.264 53.1965C112.327 53.0213 112.389 52.846 112.457 52.6708C112.503 53.0646 112.546 53.4548 112.589 53.842L112.589 53.8427C112.687 54.7381 112.784 55.6174 112.919 56.4873C113.053 57.344 113.439 57.6945 114.209 57.7724C115.017 57.8698 115.672 57.4803 115.922 56.7015C115.96 56.5805 115.998 56.4591 116.036 56.3375C116.292 55.5194 116.553 54.6867 116.654 53.8391C116.943 51.483 117.135 49.1269 117.328 46.7709C117.399 45.9166 117.439 45.0517 117.478 44.1919L117.478 44.1917L117.478 44.1913L117.478 44.191L117.478 44.1906L117.478 44.1902L117.478 44.1898L117.478 44.1894L117.478 44.189ZM114.191 77.0878C114.336 76.2875 114.478 75.4912 114.618 74.6979C115.019 72.4411 115.415 70.2081 115.885 67.975C116.232 66.281 116.694 64.6064 117.657 63.1266C118.042 62.5229 118.561 62.2698 119.255 62.3477C119.967 62.4256 120.371 62.7566 120.41 63.4771C120.416 63.6024 120.424 63.7279 120.431 63.8537L120.431 63.8553C120.486 64.8232 120.542 65.801 120.371 66.7483C119.607 71.0233 118.796 75.2865 117.983 79.5562L117.979 79.5776C117.749 80.785 117.52 81.993 117.291 83.2019C117.225 83.5344 117.123 83.8577 117.022 84.1783L117.022 84.1783L117.022 84.1784L117.022 84.1785L117.022 84.1786L117.022 84.1787L117.022 84.1788L117.022 84.1789C116.976 84.3275 116.929 84.4754 116.886 84.6233C116.694 85.3048 116.213 85.5775 115.558 85.6164C114.403 85.6748 113.402 85.3243 112.689 84.3702C112.323 83.9029 112.015 83.3771 111.746 82.8514C111.207 81.7383 110.687 80.6186 110.168 79.4999L110.168 79.4992L110.168 79.4985L110.167 79.4977L110.167 79.497L110.167 79.4963L110.166 79.4955L110.166 79.4948C109.796 78.6975 109.427 77.9007 109.05 77.1073C109.015 77.0351 108.972 76.9629 108.912 76.8632C108.875 76.8015 108.832 76.7292 108.781 76.6399C108.565 76.9599 108.543 77.269 108.521 77.5673C108.514 77.6683 108.507 77.7681 108.492 77.8666C108.42 78.4671 108.353 79.0689 108.286 79.671L108.286 79.6711L108.286 79.6713L108.286 79.6714L108.286 79.6716L108.286 79.6718L108.286 79.6719L108.286 79.6721C108.104 81.3151 107.921 82.9602 107.626 84.5844C107.457 85.576 107.035 86.5225 106.622 87.4504L106.539 87.6369C106.51 87.7034 106.48 87.7698 106.451 87.8362C106.028 88.7513 104.237 88.6345 103.717 87.6414C103.024 86.3174 102.543 84.9544 102.697 83.3772C103.082 79.035 103.756 74.7512 104.603 70.4869C104.834 69.338 105.084 68.2087 105.373 67.0793C105.546 66.3978 105.912 65.8331 106.682 65.7552C107.491 65.6579 108.222 65.8721 108.742 66.5536C109.012 66.9235 109.224 67.3325 109.435 67.7414C110.575 70.0027 111.704 72.2749 112.83 74.5417L112.83 74.5423L112.831 74.5429L112.834 74.5502L112.858 74.5984C113.226 75.3381 113.593 76.0772 113.96 76.8152C114.037 76.932 114.114 77.0099 114.191 77.0878ZM141.57 46.6933C141.643 46.5885 141.72 46.4782 141.802 46.3615C141.883 46.7811 141.958 47.1739 142.029 47.5512L142.031 47.5592L142.031 47.5607L142.032 47.5635L142.033 47.5702L142.033 47.5719C142.163 48.2547 142.282 48.887 142.418 49.5353C142.63 50.431 143.015 50.7036 143.9 50.6842C144.728 50.6647 145.056 50.4116 145.287 49.5353C145.729 47.8218 146.134 46.1083 146.134 44.3169C146.134 41.4546 146.115 38.5922 146.057 35.7299C146.038 34.7758 145.729 34.5226 144.786 34.3474C144.42 34.289 144.035 34.2695 143.65 34.289C142.803 34.3279 142.264 34.7174 141.994 35.6131C141.532 37.1903 141.012 38.787 140.416 40.3252C139.722 42.1361 138.952 43.908 138.163 45.6799C137.965 46.0939 137.685 46.4712 137.387 46.8746L137.386 46.8748C137.249 47.0597 137.108 47.25 136.969 47.4519C136.199 46.4978 136.045 45.5242 136.026 44.5311C135.968 39.819 136.815 35.3015 138.895 31.0762C139.318 30.2389 139.857 29.4405 140.396 28.6617C140.762 28.1165 141.243 27.7075 141.975 28.097C142.091 28.1554 142.264 28.1943 142.379 28.1359C142.427 28.1117 142.477 28.0882 142.527 28.0644C142.758 27.9545 142.997 27.8413 143.092 27.6491C143.169 27.4934 142.957 27.1039 142.784 26.9481C142.533 26.734 142.187 26.5782 141.86 26.4808C140.127 26.0135 138.548 26.4029 137.085 27.396C136.064 28.0775 135.237 29.0122 134.582 30.0636C131.732 34.5811 130.577 39.5269 131.213 44.8427C131.636 48.3086 134.197 50.2558 137.547 49.8079C138.914 49.6132 139.934 48.8538 140.762 47.8024C141.026 47.4726 141.265 47.1301 141.57 46.6933ZM49.8263 97.6698C49.5375 101.895 48.3823 105.692 45.9756 108.963C44.0503 111.553 41.4511 113.345 38.2935 114.162C38.024 114.24 37.7352 114.299 37.4656 114.279C36.7533 114.24 36.1372 114.357 35.5018 114.785C34.5199 115.447 33.1914 114.454 33.1914 113.091C33.1914 112.291 33.2946 111.49 33.3978 110.689L33.3978 110.689L33.4237 110.487L33.4417 110.346C33.5639 109.352 33.6822 108.359 33.8002 107.367L33.8004 107.366L33.8004 107.365C34.1286 104.609 34.4559 101.86 34.8664 99.1107C35.0928 97.5218 35.4204 95.9422 35.7474 94.3656L35.7475 94.3654L35.7475 94.3653L35.7475 94.3652L35.7475 94.3651L35.7475 94.365L35.7476 94.3649C35.8934 93.6618 36.0391 92.9592 36.1757 92.2566C36.1875 92.1927 36.2018 92.1271 36.2162 92.0611L36.2162 92.0609C36.272 91.8052 36.3292 91.5426 36.2527 91.3415C35.9831 90.6794 36.2912 90.2705 36.7725 90.0174C37.4079 89.6669 38.101 89.3554 38.7941 89.1996C40.835 88.7712 42.8758 88.8101 44.8782 89.5695C47.5159 90.5626 48.9021 92.6071 49.5182 95.2747C49.6638 95.8933 49.7213 96.5341 49.774 97.1214C49.791 97.3106 49.8075 97.4942 49.8263 97.6698ZM36.9073 112.293C39.391 110.696 41.4318 109.041 42.6833 106.549C43.6459 104.641 44.3006 102.635 44.8011 100.571C45.2247 98.8381 45.3787 97.0662 45.1092 95.3137C44.9552 94.3206 44.6086 93.3276 44.1658 92.4124C43.6459 91.322 42.7218 90.66 41.4318 90.9131C40.8003 91.0277 40.1824 91.2112 39.5666 91.3941L39.5665 91.3941C39.4502 91.4287 39.3339 91.4632 39.2177 91.4972C38.7556 91.6335 38.5823 91.9451 38.5823 92.4514C38.5083 97.3763 37.989 102.283 37.4699 107.189L37.4079 107.776L37.352 108.292C37.2161 109.548 37.0766 110.838 36.9073 112.293ZM55.1344 105.277L55.134 105.277L55.1328 105.278C54.786 105.392 54.4256 105.51 54.0437 105.634C54.1601 104.847 54.2737 104.071 54.386 103.305L54.386 103.305L54.386 103.305L54.386 103.305L54.386 103.305C54.682 101.284 54.9688 99.3261 55.2759 97.378C55.6985 97.2326 56.138 97.1181 56.5774 97.0036C58.0797 96.6121 59.5823 96.2206 60.4165 94.5936C60.1719 94.3725 59.9934 94.2112 59.786 94.1081C59.2261 93.8298 58.4552 93.9757 55.6032 94.5157V87.2138C56.1902 86.9572 56.7977 86.7357 57.4075 86.5134C59.1581 85.8752 60.9276 85.2302 62.2841 83.7283C61.6295 82.9529 60.866 83.096 60.1523 83.2297L60.0892 83.2415C57.8173 83.6504 55.7957 84.7019 53.8704 85.9286C53.5623 86.1234 53.2543 86.4544 53.158 86.7854C52.0413 90.6408 51.0401 94.5351 50.4818 98.5268C50.1545 100.747 49.9427 103.005 49.8657 105.264C49.7694 107.484 50.7706 108.399 53.004 108.36C53.4276 108.36 53.8511 108.321 54.2362 108.165C55.3144 107.756 56.3733 107.309 57.413 106.802C57.8173 106.627 58.1639 106.296 58.4719 105.965C58.4989 105.936 58.5276 105.906 58.5572 105.876L58.5905 105.842C58.8497 105.579 59.1473 105.278 58.9147 104.875C58.6644 104.407 58.1831 104.388 57.7018 104.505C57.5915 104.534 57.4784 104.561 57.3636 104.589C57.1777 104.633 56.9873 104.678 56.7969 104.738C56.2553 104.909 55.7137 105.087 55.1345 105.277L55.1344 105.277ZM20.851 46.1486C18.1941 43.2473 17.963 42.8189 18.4829 41.7285L18.5599 41.7855C18.8197 41.9778 19.0636 42.1583 19.2915 42.3711C19.7201 42.7488 20.1468 43.1266 20.5727 43.5037L20.5737 43.5045C21.4868 44.3129 22.3966 45.1184 23.3154 45.9149C24.0856 46.577 24.1626 46.8496 23.5465 47.6674C23.1422 48.2126 22.7186 48.7189 22.2565 49.2057C21.2938 50.2766 20.3119 51.3281 19.3108 52.3601C18.945 52.73 18.5406 53.0805 17.9245 52.8274C17.0389 52.4769 16.8848 52.1654 17.2892 51.3086C17.417 51.0357 17.5868 50.7733 17.7598 50.5059C17.8213 50.4109 17.8832 50.3152 17.9438 50.2182C18.2518 49.7509 18.5599 49.2835 19.022 48.6215C18.6903 48.7025 18.4402 48.7559 18.2232 48.8023L18.2231 48.8024L18.2227 48.8025C18.0745 48.8341 17.9418 48.8625 17.809 48.8941L17.8089 48.8941L17.8084 48.8943C14.8628 49.7705 11.9173 50.6466 8.97175 51.5423C7.72028 51.922 6.46882 52.3114 5.21735 52.7008L5.21729 52.7008L5.21724 52.7009L5.21718 52.7009C3.96578 53.0903 2.71437 53.4797 1.46297 53.8594C0.962386 54.0152 0.461801 54.1515 -0.0195312 53.6452C0.193638 53.1974 0.58836 53.0463 0.962432 52.903L0.962479 52.903L0.962527 52.903L0.962584 52.903C1.02768 52.8781 1.09214 52.8534 1.15492 52.8274C3.42681 51.9512 5.71795 51.0749 8.00909 50.2182C12.033 48.6994 16.1147 47.3558 20.2927 46.3433C20.4336 46.3433 20.5436 46.2911 20.6831 46.225L20.6833 46.2249C20.7343 46.2007 20.7892 46.1747 20.851 46.1486ZM128.852 11.7198L128.852 11.7199C128.671 11.7807 128.469 11.8488 128.228 11.9364L128.375 11.697C128.908 10.8295 129.361 10.0916 129.749 9.28827C129.884 9.05461 129.942 8.52888 129.826 8.45099C129.576 8.29522 129.191 8.27574 128.864 8.29522C128.671 8.31469 128.459 8.45099 128.305 8.58729C127.996 8.87315 127.68 9.15591 127.363 9.43951L127.363 9.43956L127.363 9.4396C126.557 10.1605 125.745 10.8868 125.013 11.6833C123.877 12.9295 124.07 13.5331 125.648 14.1367C126.872 14.6118 128.118 15.0336 129.368 15.4572C129.809 15.6067 130.251 15.7563 130.693 15.9087L130.753 15.9267C131.062 16.0207 131.389 16.1199 131.732 15.7724C130.932 14.9013 129.917 14.438 128.848 13.9495L128.847 13.9492L128.847 13.9489C128.554 13.8152 128.257 13.6795 127.959 13.5331C128.064 13.4798 128.146 13.4355 128.214 13.3989L128.214 13.3987L128.214 13.3986C128.319 13.3418 128.389 13.3037 128.459 13.28C129.3 13.0009 130.145 12.7304 130.99 12.46C132.68 11.9191 134.37 11.3782 136.026 10.7681C138.841 9.72999 141.646 8.62407 144.448 7.51922C145.324 7.17345 146.201 6.82779 147.077 6.48434C147.12 6.46609 147.164 6.44837 147.208 6.43055L147.208 6.43049L147.208 6.43033C147.539 6.29622 147.883 6.15674 148.002 5.74442C147.549 5.34428 147.06 5.44758 146.607 5.54342L146.577 5.5497C145.71 5.72495 144.863 5.90019 144.035 6.19227C139.126 7.9642 134.235 9.7556 129.345 11.547C129.191 11.6054 129.032 11.6589 128.852 11.7198L128.852 11.7198ZM81.7468 21.4572C80.322 21.3209 79.7444 20.6979 80.0332 19.3543C80.1873 18.6338 80.4375 17.9329 80.7841 17.2903C81.2654 16.3946 82.1703 16.122 83.1138 16.4141C84.6348 16.9009 84.8658 17.3292 84.423 18.9065C84.2112 19.6658 83.9416 20.4252 83.2678 20.8536C82.953 21.0526 82.5937 21.1702 82.2383 21.2865C82.0719 21.341 81.9064 21.3952 81.7468 21.4572ZM39.9871 27.9226C39.756 29.1687 40.1603 29.6555 41.5081 29.6555C42.0279 29.6361 42.6825 29.5387 42.9713 28.8572C43.2794 28.1562 43.5489 27.4358 43.7607 26.6958C43.9147 26.1312 43.7029 25.8586 43.1638 25.6444C41.9316 25.177 40.7572 25.6638 40.2566 26.91C40.1411 27.241 40.0448 27.5721 39.9871 27.9226Z" fill="#8C5B97"/>
</g>
<defs>
<clipPath id="clip0_659_1630">
<rect width="148" height="115" fill="white"/>
</clipPath>
</defs>
</svg>
