<svg width="78" height="27" viewBox="0 0 78 27" fill="none" xmlns="http://www.w3.org/2000/svg">
<path fill-rule="evenodd" clip-rule="evenodd" d="M9.41285 22.9839C7.07412 22.9839 4.32665 21.3077 4.32665 17.6438C4.32665 13.9798 7.10253 12.2946 9.41504 12.2946C12.1997 12.2946 14.499 14.5119 14.499 17.6438C14.499 20.7756 12.2193 22.9839 9.41285 22.9839ZM17.7372 0.208116C18.2618 0.208116 18.6869 0.645723 18.6869 1.1857V25.5769C18.6869 25.8365 18.5867 26.0854 18.4084 26.269C18.2301 26.4525 17.9883 26.5556 17.7361 26.5556H15.5231C15.2711 26.5553 15.0295 26.4521 14.8515 26.2686C14.6734 26.0851 14.5734 25.8363 14.5734 25.5769V23.8816H14.5001C14.5001 23.8816 13.0696 27 8.52435 27C4.0589 26.9989 0 23.7984 0 17.6438C0 11.4891 4.26655 8.28528 8.36698 8.28528C12.4674 8.28528 14.2466 10.9964 14.2466 10.9964H14.3559V1.1857C14.3559 0.645723 14.781 0.206991 15.3056 0.206991H17.7361L17.7372 0.208116ZM30.9587 8.28078C35.0832 8.28078 40.3737 11.0729 40.3737 17.6393C40.3737 24.2045 35.0963 26.9944 30.9587 26.9944C26.8211 26.9944 21.5448 24.2607 21.5448 17.6393C21.5448 11.0178 26.7162 8.27965 30.9587 8.27965V8.28078ZM60.9185 13.6479C60.4868 13.6479 60.1688 13.3116 60.1152 13.1642C59.7546 12.1945 58.6071 11.83 57.6825 11.83C56.2214 11.83 55.076 12.5264 55.076 13.7244C55.076 15.0721 56.617 15.3095 58.782 15.8281C60.8617 16.3264 64.7304 17.1409 64.7304 21.2605C64.7304 25.2664 61.0584 26.9775 57.3831 26.9775C51.2303 26.9775 50.4379 22.7094 50.4379 22.1796C50.4379 21.7622 50.7713 21.2211 51.392 21.2211H53.781C54.2509 21.2211 54.5679 21.5744 54.6608 21.8511C54.9679 22.7241 55.9449 23.3822 57.5896 23.3822C59.3557 23.3822 60.3994 22.6622 60.3994 21.7026C60.3994 20.0455 58.6716 19.7114 56.6771 19.2659C53.9591 18.6585 50.7483 18.0397 50.7483 14.0203C50.7483 9.97046 54.3242 8.26391 57.4661 8.26391C62.0999 8.26391 63.7993 11.2765 63.9906 12.3936C64.0977 13.0101 63.7611 13.6479 63.0878 13.6479H60.9185ZM74.1761 26.9134C72.139 26.9134 68.9073 26.4994 68.9073 21.1784V12.4296H66.6134C66.3615 12.4293 66.1199 12.3261 65.9418 12.1426C65.7637 11.959 65.6637 11.7103 65.6637 11.4509V9.62847C65.6637 9.0885 66.0899 8.64976 66.6145 8.64976H68.9073V4.12633C68.9074 3.93596 68.9614 3.74976 69.0628 3.59051C69.1641 3.43126 69.3083 3.30589 69.4778 3.22974L71.9084 2.13854C72.0529 2.07404 72.2108 2.04753 72.3678 2.06139C72.5247 2.07525 72.6759 2.12906 72.8077 2.21796C72.9395 2.30686 73.0477 2.42808 73.1227 2.57072C73.1977 2.71336 73.2371 2.87294 73.2373 3.03512V8.64976H77.0503C77.5749 8.64976 78 9.08737 78 9.62735V11.4509C78 11.9909 77.5738 12.4285 77.0492 12.4285H73.2373V20.6114C73.2373 22.2977 73.5706 22.9805 75.1837 22.9805C75.6973 22.9805 75.9104 22.8107 76.1235 22.8107C76.482 22.8107 76.788 22.9142 77.0044 23.3315L77.8262 24.9132C77.8867 25.0299 77.9237 25.158 77.9347 25.2898C77.9458 25.4215 77.9308 25.5542 77.8907 25.6799C77.8505 25.8055 77.7861 25.9215 77.7012 26.0208C77.6163 26.1201 77.5127 26.2006 77.3967 26.2575C76.7476 26.5759 75.6995 26.9123 74.1761 26.9123V26.9134ZM43.2294 9.6251C43.2294 9.08512 43.6556 8.64639 44.1802 8.64639H46.6096C47.1342 8.64639 47.5604 9.08512 47.5604 9.6251V25.5769C47.5604 25.8365 47.4602 26.0854 47.2819 26.269C47.1036 26.4525 46.8618 26.5556 46.6096 26.5556H44.1791C43.6545 26.5556 43.2294 26.1169 43.2294 25.5769V9.6251ZM45.4217 5.34915C43.7277 5.34915 42.6436 4.02171 42.6436 2.67514C42.6436 1.32857 43.7146 0 45.4217 0C47.1298 0 48.2008 1.32857 48.2008 2.67514C48.2008 4.02058 47.1178 5.34915 45.4217 5.34915ZM30.9478 22.9839C33.7903 22.9839 36.0351 20.6429 36.0351 17.6393C36.0351 14.6356 33.8439 12.2901 30.9478 12.2901C28.0517 12.2901 25.8703 14.6345 25.8703 17.6393C25.8703 20.6429 28.1041 22.9839 30.9478 22.9839Z" fill="#303037" fill-opacity="0.8"/>
</svg>
