<svg width="85" height="35" viewBox="0 0 85 35" fill="none" xmlns="http://www.w3.org/2000/svg">
<path fill-rule="evenodd" clip-rule="evenodd" d="M84.1098 18.0837C84.1098 12.1024 81.2126 7.38281 75.6752 7.38281C70.1145 7.38281 66.75 12.1024 66.75 18.037C66.75 25.0697 70.722 28.6211 76.4229 28.6211C79.2033 28.6211 81.3061 27.9903 82.8949 27.1024V22.4295C81.3061 23.2239 79.4836 23.7146 77.1706 23.7146C74.9042 23.7146 72.8949 22.9202 72.6378 20.1632H84.0631C84.0631 19.8595 84.1098 18.6445 84.1098 18.0837ZM72.5678 15.8641C72.5678 13.2239 74.1799 12.1258 75.6519 12.1258C77.0771 12.1258 78.5958 13.2239 78.5958 15.8641H72.5678Z" fill="#303037" fill-opacity="0.8"/>
<path fill-rule="evenodd" clip-rule="evenodd" d="M57.7343 7.38281C55.4446 7.38281 53.9726 8.45758 53.1549 9.20524L52.8511 7.75664H47.7109V34.9996L53.5521 33.7613L53.5754 27.1492C54.4165 27.7566 55.6549 28.6211 57.7109 28.6211C61.8932 28.6211 65.7016 25.2566 65.7016 17.8501C65.6782 11.0744 61.8231 7.38281 57.7343 7.38281ZM56.3324 23.4809C54.9539 23.4809 54.1362 22.9903 53.5754 22.3828L53.5521 13.7146C54.1595 13.037 55.0007 12.5697 56.3324 12.5697C58.4586 12.5697 59.9306 14.9529 59.9306 18.0137C59.9306 21.1445 58.482 23.4809 56.3324 23.4809Z" fill="#303037" fill-opacity="0.8"/>
<path fill-rule="evenodd" clip-rule="evenodd" d="M39.6719 6.00467L45.5364 4.74299V0L39.6719 1.23832V6.00467Z" fill="#303037" fill-opacity="0.8"/>
<path d="M45.5364 7.78027H39.6719V28.2242H45.5364V7.78027Z" fill="#303037" fill-opacity="0.8"/>
<path fill-rule="evenodd" clip-rule="evenodd" d="M33.3893 9.50954L33.0155 7.78057H27.9688V28.2245H33.8099V14.3694C35.1884 12.5703 37.5248 12.8974 38.2491 13.1544V7.78057C37.5015 7.5002 34.7678 6.98618 33.3893 9.50954Z" fill="#303037" fill-opacity="0.8"/>
<path fill-rule="evenodd" clip-rule="evenodd" d="M21.7087 2.70996L16.0077 3.92491L15.9844 22.6399C15.9844 26.0978 18.5778 28.6445 22.0358 28.6445C23.9517 28.6445 25.3535 28.2941 26.1246 27.8735V23.1305C25.3769 23.4343 21.6853 24.509 21.6853 21.0511V12.7567H26.1246V7.78006H21.6853L21.7087 2.70996Z" fill="#303037" fill-opacity="0.8"/>
<path fill-rule="evenodd" clip-rule="evenodd" d="M5.91122 13.7146C5.91122 12.8034 6.65888 12.4529 7.8972 12.4529C9.6729 12.4529 11.9159 12.9903 13.6916 13.9482V8.45758C11.7523 7.68655 9.83645 7.38281 7.8972 7.38281C3.15421 7.38281 0 9.85945 0 13.995C0 20.4436 8.8785 19.4155 8.8785 22.1959C8.8785 23.2707 7.94393 23.6211 6.63551 23.6211C4.69626 23.6211 2.21963 22.8267 0.257009 21.752V27.3127C2.42991 28.2473 4.62617 28.6445 6.63551 28.6445C11.4953 28.6445 14.8364 26.238 14.8364 22.0557C14.8131 15.0931 5.91122 16.3314 5.91122 13.7146Z" fill="#303037" fill-opacity="0.8"/>
</svg>
