<svg width="178" height="35" viewBox="0 0 178 35" fill="none" xmlns="http://www.w3.org/2000/svg">
<g clip-path="url(#clip0_659_1697)">
<path d="M20.6568 6.58307L10.3284 13.1661L20.6568 19.7492L10.3284 26.3323L0 19.6944L10.3284 13.1113L0 6.58307L10.3284 0L20.6568 6.58307ZM10.2735 28.4169L20.6019 21.8339L30.9302 28.4169L20.6019 35L10.2735 28.4169ZM20.6568 19.6944L30.9852 13.1113L20.6568 6.58307L30.9302 0L41.2586 6.58307L30.9302 13.1661L41.2586 19.7492L30.9302 26.3323L20.6568 19.6944Z" fill="#303037" fill-opacity="0.8"/>
<path d="M49.3359 6.58263H57.6866C63.0156 6.58263 67.4106 9.65473 67.4106 16.6767V18.1579C67.4106 25.2347 63.2903 28.4165 57.8514 28.4165H49.3359V6.58263ZM54.0057 10.5325V24.4118H57.5767C60.5983 24.4118 62.631 22.4369 62.631 18.0482V16.8961C62.631 12.5074 60.4884 10.5325 57.4119 10.5325H54.0057ZM69.8828 10.7519H73.6187L74.223 14.8663C74.9372 12.0685 76.7501 10.5873 80.0464 10.5873H81.2001V15.3052H79.2773C75.4866 15.3052 74.5526 16.6218 74.5526 20.3522V28.4714H69.9378V10.7519H69.8828ZM82.1341 19.9682V19.4745C82.1341 13.5497 85.9248 10.313 91.089 10.313C96.3631 10.313 100.044 13.5497 100.044 19.4745V19.9682C100.044 25.7833 96.473 28.9102 91.089 28.9102C85.3754 28.8554 82.1341 25.7833 82.1341 19.9682ZM95.3193 19.9134V19.4745C95.3193 16.183 93.6711 14.208 91.0341 14.208C88.452 14.208 86.7489 16.0184 86.7489 19.4745V19.9134C86.7489 23.0952 88.397 24.9055 91.0341 24.9055C93.6711 24.8507 95.3193 23.0952 95.3193 19.9134ZM102.461 10.7519H106.307L106.746 14.0983C107.68 11.8491 109.658 10.313 112.57 10.313C117.075 10.313 120.041 13.5497 120.041 19.5293V20.0231C120.041 25.8381 116.745 28.9102 112.57 28.9102C109.768 28.9102 107.845 27.6485 106.911 25.6187V34.5607H102.406L102.461 10.7519ZM115.372 19.9134V19.5293C115.372 16.0184 113.559 14.2629 111.141 14.2629C108.559 14.2629 106.856 16.2378 106.856 19.5293V19.8585C106.856 22.9855 108.504 24.9604 111.087 24.9604C113.724 24.9055 115.372 23.2049 115.372 19.9134ZM126.854 25.1798L126.469 28.4165H122.514V4.82715H127.019V13.8789C128.008 11.5748 129.985 10.313 132.787 10.313C137.017 10.3679 140.149 13.2754 140.149 19.1453V19.6939C140.149 25.5638 137.182 28.9102 132.677 28.9102C129.711 28.8554 127.788 27.4839 126.854 25.1798ZM135.424 19.6939V19.255C135.424 16.0184 133.666 14.208 131.194 14.208C128.667 14.208 126.909 16.2378 126.909 19.3099V19.6939C126.909 22.9855 128.612 24.9055 131.139 24.9055C133.831 24.9055 135.424 23.2049 135.424 19.6939ZM142.127 19.9682V19.4745C142.127 13.5497 145.917 10.313 151.082 10.313C156.356 10.313 160.037 13.5497 160.037 19.4745V19.9682C160.037 25.7833 156.411 28.9102 151.082 28.9102C145.368 28.8554 142.127 25.7833 142.127 19.9682ZM155.367 19.9134V19.4745C155.367 16.183 153.719 14.208 151.082 14.208C148.5 14.208 146.796 16.0184 146.796 19.4745V19.9134C146.796 23.0952 148.445 24.9055 151.082 24.9055C153.719 24.8507 155.367 23.0952 155.367 19.9134ZM166.08 19.255L159.872 10.7519H165.201L168.772 16.0732L172.398 10.7519H177.672L171.354 19.2002L178.001 28.4165H172.782L168.717 22.5466L164.761 28.4165H159.322L166.08 19.255Z" fill="#303037" fill-opacity="0.8"/>
</g>
<defs>
<clipPath id="clip0_659_1697">
<rect width="178" height="35" fill="white"/>
</clipPath>
</defs>
</svg>
