<svg width="100" height="35" viewBox="0 0 100 35" fill="none" xmlns="http://www.w3.org/2000/svg">
<path fill-rule="evenodd" clip-rule="evenodd" d="M21.4976 0.0795671L2.1083 1.50988C0.544303 1.64522 0 2.66604 0 3.88986V25.1206C0 26.0738 0.338729 26.8893 1.15635 27.9789L5.71401 33.8985C6.46272 34.8517 7.14368 35.0558 8.57335 34.9882L31.0895 33.6267C32.9934 33.4913 33.5389 32.6059 33.5389 31.109V7.22415C33.5389 6.45066 33.2328 6.22783 32.3323 5.5675C32.2805 5.53022 32.2287 5.49289 32.1769 5.4555L25.9887 1.10039C24.4913 0.0130679 23.8792 -0.124597 21.4976 0.0795671ZM9.08261 6.83332C7.24413 6.95699 6.82715 6.98499 5.78293 6.13683L3.12799 4.02752C2.85817 3.75452 2.99367 3.41386 3.67346 3.3462L22.3129 1.98588C23.8781 1.84938 24.6934 2.39421 25.3054 2.8702L28.5023 5.18367C28.639 5.25251 28.9789 5.65967 28.5701 5.65967L9.32089 6.81699L9.08261 6.83332ZM6.93928 30.9049V10.6284C6.93928 9.74296 7.21143 9.33463 8.02671 9.26579L30.1352 7.97314C30.8851 7.90548 31.2238 8.38147 31.2238 9.26579V29.4069C31.2238 30.2924 31.0872 31.0414 29.8631 31.109L8.70651 32.334C7.48241 32.4017 6.93928 31.9945 6.93928 30.9049ZM27.8237 11.7158C27.9592 12.3283 27.8237 12.9408 27.2105 13.0108L26.1908 13.2126V28.1831C25.3054 28.6591 24.4901 28.9309 23.8092 28.9309C22.7206 28.9309 22.4484 28.5902 21.6331 27.5706L14.9648 17.0917V27.2299L17.0743 27.7071C17.0743 27.7071 17.0743 28.9321 15.3725 28.9321L10.6805 29.2039C10.5438 28.9309 10.6805 28.2507 11.1559 28.1154L12.3811 27.7759V14.3711L10.6805 14.2334C10.5438 13.6209 10.8837 12.7366 11.8368 12.6678L16.871 12.3294L23.8092 22.9436V13.5532L22.0408 13.3502C21.9041 12.6001 22.4484 12.0553 23.1282 11.9888L27.8237 11.7158Z" fill="#303037" fill-opacity="0.8"/>
<path d="M46.9071 24.6398V15.4116H47.0672L53.7296 24.6398H55.8274V11.0787H53.4948V20.2976H53.3348L46.6724 11.0787H44.5664V24.6387H46.9083L46.9071 24.6398ZM62.4198 24.8475C65.4975 24.8475 67.3699 22.8362 67.3699 19.4996C67.3699 16.1723 65.4882 14.1516 62.4198 14.1516C59.3619 14.1516 57.4708 16.1816 57.4708 19.4996C57.4708 22.8362 59.3338 24.8475 62.4198 24.8475ZM62.4198 22.8922C60.7927 22.8922 59.8618 21.652 59.8618 19.4996C59.8618 17.3564 60.7927 16.1069 62.4198 16.1069C64.0387 16.1069 64.9696 17.3564 64.9696 19.4996C64.9696 21.652 64.048 22.8922 62.4198 22.8922ZM69.5015 11.8405V14.4246H67.8745V16.2854H69.5015V21.8959C69.5015 23.8885 70.443 24.6877 72.8047 24.6877C73.2556 24.6877 73.6889 24.641 74.0277 24.5745V22.751C73.745 22.779 73.5663 22.7977 73.2369 22.7977C72.2593 22.7977 71.8259 22.3474 71.8259 21.3324V16.2854H74.0277V14.4246H71.8259V11.8393H69.5015V11.8405ZM75.4258 24.6398H77.7502V14.3581H75.4258V24.6398ZM76.5833 12.6583C77.3542 12.6583 77.9756 12.0365 77.9756 11.2572C77.9756 10.4767 77.3554 9.84668 76.5833 9.84668C75.8218 9.84668 75.191 10.4767 75.191 11.2572C75.191 12.0365 75.8218 12.6571 76.5833 12.6571V12.6583ZM84.1265 24.8475C87.2031 24.8475 89.0754 22.8362 89.0754 19.4996C89.0754 16.1723 87.1937 14.1516 84.1265 14.1516C81.0674 14.1516 79.1763 16.1816 79.1763 19.4996C79.1763 22.8362 81.0394 24.8475 84.1265 24.8475ZM84.1265 22.8922C82.4982 22.8922 81.5661 21.652 81.5661 19.4996C81.5661 17.3564 82.4982 16.1069 84.1265 16.1069C85.7442 16.1069 86.6763 17.3564 86.6763 19.4996C86.6763 21.652 85.7535 22.8922 84.1265 22.8922ZM90.4642 24.6398H92.7979V18.6537C92.7979 17.1406 93.674 16.1816 95.0651 16.1816C96.4866 16.1816 97.1442 16.9714 97.1442 18.5406V24.6398H99.4791V17.9864C99.4791 15.5329 98.2269 14.1516 95.9318 14.1516C94.397 14.1516 93.3621 14.8563 92.8727 16.0031H92.7127V14.3581H90.4642V24.6398Z" fill="#303037" fill-opacity="0.8"/>
</svg>
