<svg width="142" height="35" viewBox="0 0 142 35" fill="none" xmlns="http://www.w3.org/2000/svg">
<path d="M45.6325 13.6867C45.6325 11.1904 43.1673 8.5391 38.9012 8.5391C34.1107 8.5391 28.8481 11.9995 28.0439 18.9031C27.2221 25.8756 31.628 28.9744 36.0689 28.9744C40.5097 28.9744 42.8351 27.27 45.2129 24.9975C43.1673 22.4668 40.5272 23.6375 40.0202 23.8957C39.4607 24.1712 38.7439 24.5499 37.2752 24.5499C35.5618 24.5499 33.8135 23.7924 33.8135 20.6419C44.7932 19.5745 45.6325 16.183 45.6325 13.6867ZM40.195 14.0999C40.1251 14.8746 39.8104 16.2002 34.2506 16.9405C35.422 12.8431 37.6599 12.5332 38.6914 12.5332C39.653 12.5332 40.265 13.2735 40.195 14.0999ZM21.5924 14.7713C21.5924 14.7713 19.2321 22.0708 19.0398 22.6734C18.9698 22.0536 17.2389 8.95229 17.2389 8.95229C13.2177 8.95229 11.0672 11.7757 9.93074 14.7541C9.93074 14.7541 7.06342 22.0708 6.81864 22.6906C6.80116 22.1225 6.38155 14.8401 6.38155 14.8401C6.13678 11.1904 2.74494 8.9695 0 8.9695L3.3219 28.8195C7.53548 28.8023 9.80836 25.9961 10.9972 23.0177C10.9972 23.0177 13.5324 16.5617 13.6373 16.2691C13.6548 16.5445 15.4556 28.8195 15.4556 28.8195C19.6866 28.8195 21.9595 26.1854 23.1834 23.3104L29.1104 8.9695C24.9318 8.9695 22.7288 11.7757 21.5924 14.7713ZM61.158 8.50467C58.5529 8.50467 56.5598 9.89916 54.8813 11.9479V11.9306L56.3849 0C52.9232 0 50.1083 2.96114 49.5663 7.36842L46.9437 28.6645C48.9369 28.6645 51.0524 28.0964 52.1888 26.6503C53.2029 27.9415 54.724 28.9744 56.9794 28.9744C62.8189 28.9744 66.8227 22.2946 66.8227 16.028C66.7877 10.3123 63.9729 8.50467 61.158 8.50467ZM60.616 18.7482C60.0041 22.243 58.0284 24.6188 56.1227 24.6188C54.1995 24.6188 53.3777 23.7752 53.3777 23.7752C53.7449 20.7108 53.9722 18.8342 54.6715 17.2159C55.3709 15.5976 57.0318 13.0152 58.7627 13.0152C60.4586 13.0152 61.2279 15.2361 60.616 18.7482ZM81.4041 8.9695H77.3304L77.3479 8.76291C77.6276 6.14609 78.257 4.76881 80.3376 4.54501C81.7538 4.40728 82.3832 3.68421 82.5406 2.89228C82.6629 2.2725 83.0476 0.120512 83.0476 0.120512C74.8652 0.0688637 72.2951 3.54648 71.6307 8.84899L71.6132 8.9695H71.5258C70.1971 8.9695 68.7284 10.4501 68.4837 12.3266L68.3962 13.0152H71.1237L68.8333 31.6429L68.134 34.9828C68.2214 34.9828 68.3263 35 68.4137 35C72.2427 34.8623 74.6904 31.8839 75.2324 27.5627L77.0157 13.0152H78.292C79.5508 13.0152 81.0195 11.7757 81.2817 9.70979L81.4041 8.9695ZM102.594 8.62518C97.8912 8.62518 93.4504 12.0339 92.0867 17.3881C90.7229 22.7423 92.786 29.0777 99.7095 29.0777C106.616 29.0777 110.602 22.484 110.602 16.9921C110.602 11.5347 106.843 8.62518 102.594 8.62518ZM104.5 18.576C104.255 21.0034 103.171 24.6877 100.199 24.6877C97.2094 24.6877 97.629 20.3837 97.9262 18.335C98.2409 16.1486 99.4823 13.0325 102.157 13.0325C104.553 13.0325 104.78 15.8387 104.5 18.576ZM133.838 14.7713C133.838 14.7713 131.477 22.0708 131.285 22.6734C131.215 22.0536 129.484 8.95229 129.484 8.95229C125.463 8.95229 123.313 11.7757 122.176 14.7541C122.176 14.7541 119.309 22.0708 119.064 22.6906C119.047 22.1225 118.627 14.8401 118.627 14.8401C118.382 11.1904 114.99 8.9695 112.245 8.9695L115.55 28.8195C119.763 28.8023 122.036 25.9961 123.225 23.0177C123.225 23.0177 125.76 16.5617 125.848 16.2691C125.865 16.5445 127.666 28.8195 127.666 28.8195C131.897 28.8195 134.17 26.1854 135.394 23.3104L141.321 8.9695C137.16 8.9695 134.957 11.7757 133.838 14.7713ZM85.2505 0.120512L81.8237 27.3389L81.1244 30.696C81.2118 30.696 81.3167 30.7132 81.4041 30.7132C85.0932 30.6616 87.7157 27.4766 88.2053 23.4653L90.1809 7.85047C90.7754 3.08165 87.8906 0.120512 85.2505 0.120512Z" fill="#303037" fill-opacity="0.8"/>
</svg>
