<svg width="123" height="35" viewBox="0 0 123 35" fill="none" xmlns="http://www.w3.org/2000/svg">
<g clip-path="url(#clip0_659_1675)">
<path d="M42.4943 19.4624C41.4485 18.8859 40.898 18.4193 40.898 17.7604C40.898 16.9094 41.6411 16.3879 42.8246 16.3879C44.2007 16.3879 45.4116 16.9643 45.4116 16.9643L46.3749 14.0271C46.3749 14.0271 45.4942 13.3408 42.8796 13.3408C39.2467 13.3408 36.7147 15.4271 36.7147 18.3369C36.7147 19.984 37.8981 21.2467 39.4669 22.1526C40.7329 22.8663 41.1733 23.3879 41.1733 24.1291C41.1733 24.9251 40.5402 25.5565 39.3568 25.5565C37.5954 25.5565 35.9441 24.6506 35.9441 24.6506L34.9258 27.5879C34.9258 27.5879 36.467 28.6036 39.0265 28.6036C42.7695 28.6036 45.4391 26.7643 45.4391 23.4702C45.4942 21.6585 44.1181 20.3957 42.4943 19.4624Z" fill="#303037" fill-opacity="0.8"/>
<path d="M57.4116 13.2858C55.5677 13.2858 54.1365 14.1643 53.0081 15.4819L52.9531 15.4545L54.5494 7.10938H50.366L46.3203 28.329H50.4761L51.8522 21.0819C52.4026 18.3368 53.8063 16.6623 55.1273 16.6623C56.0631 16.6623 56.4208 17.2937 56.4208 18.1996C56.4208 18.776 56.3658 19.4623 56.2282 20.0388L54.6594 28.3564H58.8152L60.439 19.7917C60.6317 18.8858 60.7418 17.8153 60.7418 17.0741C60.7968 14.6858 59.5859 13.2858 57.4116 13.2858Z" fill="#303037" fill-opacity="0.8"/>
<path d="M70.2102 13.2861C65.2012 13.2861 61.8711 17.7881 61.8711 22.8116C61.8711 26.0234 63.8527 28.6312 67.5956 28.6312C72.5221 28.6312 75.8247 24.2391 75.8247 19.1057C75.8522 16.1136 74.1183 13.2861 70.2102 13.2861ZM68.1736 25.4195C66.7425 25.4195 66.1645 24.2116 66.1645 22.7018C66.1645 20.3136 67.403 16.443 69.6598 16.443C71.146 16.443 71.6138 17.7057 71.6138 18.941C71.6138 21.5214 70.3754 25.4195 68.1736 25.4195Z" fill="#303037" fill-opacity="0.8"/>
<path d="M86.5011 13.2861C83.6939 13.2861 82.0976 15.7567 82.0976 15.7567H82.0426L82.2903 13.5332H78.6024C78.4097 15.043 78.0794 17.3214 77.7492 19.0508L74.8594 34.2038H79.0152L80.1711 28.0548H80.2537C80.2537 28.0548 81.1068 28.6038 82.7031 28.6038C87.602 28.6038 90.7945 23.6077 90.7945 18.5567C90.7945 15.7842 89.5561 13.2861 86.5011 13.2861ZM82.538 25.5018C81.4646 25.5018 80.8316 24.8979 80.8316 24.8979L81.5197 21.0273C82.0151 18.4469 83.3636 16.7175 84.7948 16.7175C86.0608 16.7175 86.4461 17.8979 86.4461 18.9959C86.4461 21.6587 84.8498 25.5018 82.538 25.5018Z" fill="#303037" fill-opacity="0.8"/>
<path d="M96.7382 7.3291C95.4171 7.3291 94.3438 8.37224 94.3438 9.74479C94.3438 10.9801 95.1144 11.8311 96.2978 11.8311H96.3528C97.6464 11.8311 98.7748 10.9526 98.8023 9.41538C98.8298 8.18008 98.0042 7.3291 96.7382 7.3291Z" fill="#303037" fill-opacity="0.8"/>
<path d="M90.9062 28.329H95.0896L97.9243 13.6152H93.7135L90.9062 28.329Z" fill="#303037" fill-opacity="0.8"/>
<path d="M108.493 13.5879H105.603L105.741 12.9016C105.989 11.4742 106.814 10.2114 108.218 10.2114C108.961 10.2114 109.539 10.431 109.539 10.431L110.365 7.19182C110.365 7.19182 109.649 6.83496 108.108 6.83496C106.622 6.83496 105.163 7.24673 104.035 8.20751C102.603 9.41535 101.943 11.1448 101.613 12.9016L101.503 13.5879H99.576L98.9705 16.7173H100.897L98.6953 28.3291H102.851L105.053 16.7173H107.915L108.493 13.5879Z" fill="#303037" fill-opacity="0.8"/>
<path d="M118.511 13.6152C118.511 13.6152 115.897 20.1486 114.741 23.7172H114.686C114.603 22.5643 113.667 13.6152 113.667 13.6152H109.291L111.796 27.1211C111.851 27.4231 111.823 27.6152 111.713 27.8074C111.218 28.7407 110.42 29.6466 109.457 30.3054C108.686 30.8819 107.805 31.2388 107.117 31.4858L108.273 34.9996C109.126 34.8074 110.86 34.1211 112.346 32.7486C114.245 30.9643 116.007 28.2466 117.796 24.5133L122.887 13.6152H118.511Z" fill="#303037" fill-opacity="0.8"/>
<path d="M20.5858 4.06234C20.5858 4.06234 20.2005 4.17214 19.5675 4.3643C19.4574 4.00744 19.2923 3.59567 19.0721 3.15646C18.3566 1.78391 17.2832 1.04273 16.0172 1.04273C15.9346 1.04273 15.8521 1.04273 15.742 1.07018C15.7145 1.01528 15.6594 0.98783 15.6319 0.932928C15.0815 0.329006 14.3659 0.0544962 13.5127 0.0819472C11.8614 0.136849 10.2101 1.31724 8.88903 3.43097C7.95329 4.91332 7.23772 6.77999 7.04507 8.23489C5.14606 8.81136 3.82501 9.22313 3.79749 9.25058C2.83422 9.55254 2.8067 9.57999 2.69661 10.4859C2.61404 11.1721 0.0820312 30.4976 0.0820312 30.4976L20.8886 34.0937V4.03489C20.7234 4.03489 20.6409 4.06234 20.5858 4.06234ZM15.7695 5.54469C14.6686 5.8741 13.4577 6.25842 12.2742 6.61528C12.6045 5.32509 13.265 4.03489 14.0356 3.18391C14.3384 2.88195 14.7512 2.52508 15.2191 2.30548C15.6869 3.29371 15.797 4.63881 15.7695 5.54469ZM13.5127 1.20744C13.898 1.20744 14.2283 1.28979 14.5035 1.4545C14.0631 1.6741 13.6228 2.03097 13.21 2.44273C12.1641 3.56822 11.366 5.32509 11.0357 6.9996C10.045 7.30156 9.05417 7.60352 8.14594 7.87803C8.75142 5.24273 10.9807 1.26234 13.5127 1.20744ZM10.3202 16.3055C10.4303 18.0623 15.0815 18.4467 15.3567 22.5918C15.5493 25.8584 13.6228 28.082 10.8431 28.2467C7.48542 28.4663 5.64145 26.4898 5.64145 26.4898L6.35702 23.4702C6.35702 23.4702 8.20099 24.8702 9.68717 24.7604C10.6504 24.7055 11.0082 23.9094 10.9807 23.3604C10.8431 21.0545 7.04507 21.1918 6.79737 17.4035C6.5772 14.2192 8.66886 11.0074 13.2925 10.7055C15.0815 10.5957 15.9897 11.0349 15.9897 11.0349L14.9438 14.9878C14.9438 14.9878 13.7604 14.4388 12.3568 14.5486C10.3202 14.6859 10.2927 15.9761 10.3202 16.3055ZM16.8704 5.21528C16.8704 4.39175 16.7603 3.21136 16.375 2.22312C17.641 2.47018 18.2465 3.87018 18.5217 4.72116C18.0263 4.85842 17.4759 5.02312 16.8704 5.21528Z" fill="#303037" fill-opacity="0.8"/>
<path d="M21.5234 34.0388L30.1653 31.8976C30.1653 31.8976 26.4499 6.83485 26.4223 6.67014C26.3948 6.50543 26.2572 6.39563 26.1196 6.39563C25.982 6.39563 23.5601 6.34073 23.5601 6.34073C23.5601 6.34073 22.0739 4.91328 21.5234 4.36426V34.0388Z" fill="#303037" fill-opacity="0.8"/>
</g>
<defs>
<clipPath id="clip0_659_1675">
<rect width="122.83" height="35" fill="white"/>
</clipPath>
</defs>
</svg>
