<svg width="97" height="35" viewBox="0 0 97 35" fill="none" xmlns="http://www.w3.org/2000/svg">
<g clip-path="url(#clip0_659_1689)">
<path d="M0 0.00168935V27.0372L3.47377 27.0479V14.1733H11.8493V10.7702H3.47377V3.40306H14.3817V0L0 0.00168935Z" fill="#303037" fill-opacity="0.8"/>
<path d="M20.6327 5.48957C21.8839 5.48957 22.8982 4.47383 22.8982 3.22085C22.8982 1.96788 21.8839 0.952148 20.6327 0.952148C19.3816 0.952148 18.3672 1.96788 18.3672 3.22085C18.3672 4.47383 19.3816 5.48957 20.6327 5.48957Z" fill="#303037" fill-opacity="0.8"/>
<path d="M18.8672 8.89258V27.0423H22.3409V8.89258H18.8672Z" fill="#303037" fill-opacity="0.8"/>
<path fill-rule="evenodd" clip-rule="evenodd" d="M35.2267 8.36328C30.6137 8.36328 27.3945 12.2702 27.3945 16.9087C27.3945 21.5474 30.6137 25.4542 35.2267 25.4542C37.3385 25.4542 39.079 24.6354 40.3456 23.3026V25.7189C40.3456 28.726 37.9869 31.2394 34.9085 31.2394C33.802 31.2394 32.7026 30.8099 31.8267 30.2054L30.0861 33.2242C31.4762 34.1216 33.1316 34.6424 34.9085 34.6424C39.8299 34.6424 43.8194 30.6472 43.8194 25.7189V8.89264H40.3456V10.515C39.079 9.18204 37.3385 8.36328 35.2267 8.36328ZM30.8683 16.9087C30.8683 14.0295 33.0676 11.7663 35.6043 11.7663C38.1411 11.7663 40.3403 14.0295 40.3403 16.9087C40.3403 19.788 38.1411 22.0512 35.6043 22.0512C33.0676 22.0512 30.8683 19.788 30.8683 16.9087Z" fill="#303037" fill-opacity="0.8"/>
<path d="M56.3336 11.7663C54.2796 11.7663 52.6144 13.5094 52.6144 15.5664V27.0424H49.1406V8.89264H52.6144V10.5553C53.6322 9.23764 55.1317 8.36328 57.0887 8.36328C59.5228 8.36328 61.391 9.57397 62.473 11.4268C63.6761 9.63713 65.6387 8.36328 68.0009 8.36328C71.9546 8.36328 74.4154 11.5576 74.4387 15.5097C74.4387 15.5216 74.4387 15.5335 74.4387 15.5456V15.5463V15.5468V15.5475C74.4387 15.5538 74.4387 15.5601 74.4387 15.5664V27.0424H70.965V15.5664C70.965 13.5094 69.2998 11.7663 67.2458 11.7663C65.1916 11.7663 63.5266 13.5094 63.5266 15.5664V27.0424H60.0528V15.5664C60.0528 13.5094 58.3876 11.7663 56.3336 11.7663Z" fill="#303037" fill-opacity="0.8"/>
<path fill-rule="evenodd" clip-rule="evenodd" d="M92.9405 10.9501C91.3951 9.35206 89.2786 8.36328 86.8237 8.36328C81.6558 8.36328 77.9883 12.745 77.9883 17.9674C77.9883 23.1899 81.6558 27.5716 86.8237 27.5716C89.2786 27.5716 91.3951 26.5829 92.9405 24.9849V27.0424H96.4143V8.89264H92.9405V10.9501ZM81.462 17.9674C81.462 14.5027 84.1112 11.7663 87.2013 11.7663C90.2912 11.7663 92.9405 14.5027 92.9405 17.9674C92.9405 21.4323 90.2912 24.1686 87.2013 24.1686C84.1112 24.1686 81.462 21.4323 81.462 17.9674Z" fill="#303037" fill-opacity="0.8"/>
</g>
<defs>
<clipPath id="clip0_659_1689">
<rect width="96.4151" height="35" fill="white"/>
</clipPath>
</defs>
</svg>
