<svg width="59" height="35" viewBox="0 0 59 35" fill="none" xmlns="http://www.w3.org/2000/svg">
<path d="M1 7.25389C1 5.06532 9.41786 3.21059 10.8716 2.89044C13.4656 2.31915 16.2928 2.06236 18.9384 2.03948C23.252 2.00217 27.8833 1.6922 31.8599 3.66898C39.1549 7.29542 44.0598 14.7886 47.4522 21.9737C48.5113 24.2168 49.2419 26.6307 50.2314 28.9081C50.5424 29.624 51.5628 33 52 33" stroke="#6096BA" stroke-width="2" stroke-linecap="round" stroke-linejoin="round"/>
<path d="M44 28.5535C45.3762 28.5535 46.9012 30.4815 48.0657 31.1854C48.9452 31.717 51.5369 34 52.5202 34C52.803 34 54.6251 26.9076 54.8889 26.2507C55.6292 24.4067 56.6614 21.3841 58 20" stroke="#6096BA" stroke-width="2" stroke-linecap="round" stroke-linejoin="round"/>
</svg>
