<svg width="110" height="37" viewBox="0 0 110 37" fill="none" xmlns="http://www.w3.org/2000/svg">
<path fill-rule="evenodd" clip-rule="evenodd" d="M30.662 25.8829C30.9088 25.9656 31.1594 25.7316 31.0057 25.5155C28.5505 22.0629 30.4183 16.3227 30.4183 15.7292C30.4183 15.3222 30.1985 14.6798 28.9681 14.6254C27.9806 14.5816 26.3149 15.7558 25.1952 18.1573C25.9017 14.7335 27.1991 8.70206 27.2153 8.31231C27.2602 7.22404 26.1636 6.36364 25.7036 6.3433C25.2436 6.32295 25.1474 6.9022 25.1024 7.18674C25.0599 7.45569 24.8896 10.7661 23.9455 15.0176C22.7321 20.4817 22.136 22.1183 22.1068 22.827C22.0775 23.5358 22.5519 23.8614 23.0648 23.8841C23.9742 23.9244 24.3054 23.8398 24.3517 23.4587C24.8543 19.3099 26.8633 17.2972 28.2593 16.7385C27.8909 17.574 27.7557 18.7785 27.7557 20.3264C27.7557 21.2252 27.7045 23.0659 28.4741 24.3251C29.0919 25.336 29.912 25.6311 30.662 25.8829Z" fill="white"/>
<path fill-rule="evenodd" clip-rule="evenodd" d="M50.4957 23.7856C51.6877 23.7856 51.8261 23.4399 51.8685 23.0796C52.5429 17.3523 54.7368 9.61664 54.7368 8.05271C54.7368 7.37642 53.8016 6.36353 53.3108 6.3433C52.82 6.32297 52.5781 6.8981 52.5366 7.18191C52.4687 7.6477 52.1053 10.8738 51.0684 15.3205C50.2436 18.8579 49.4736 22.14 49.4736 22.7345C49.4736 23.44 49.948 23.7856 50.4957 23.7856Z" fill="white"/>
<path fill-rule="evenodd" clip-rule="evenodd" d="M55.7472 24.3143C56.9254 24.3143 57.0501 23.9529 57.1043 23.5795C57.7122 19.3948 58.421 18.0992 58.421 16.4713C58.421 15.7674 57.3119 14.8217 56.8268 14.8006C56.3415 14.7795 56.2411 15.3792 56.1926 15.6735C55.7672 18.2596 54.7368 22.3486 54.7368 23.2203C54.7368 23.9546 55.2057 24.3143 55.7472 24.3143Z" fill="white"/>
<path fill-rule="evenodd" clip-rule="evenodd" d="M107.466 17.0365C107.832 17.0365 107.872 17.4055 107.872 17.5753C107.872 19.3224 105.545 20.7757 104.308 21.1019C104.294 21.1055 104.282 21.1094 104.269 21.113C104.655 18.8453 106.491 17.0365 107.466 17.0365ZM109.987 20.475C109.807 20.334 107.665 22.9982 105.16 22.9982C104.454 22.9982 104.195 22.4458 104.195 21.9555C106.281 21.5225 109.048 19.4832 109.048 17.0542C109.048 16.5702 108.562 15.8572 107.173 15.8572C107.117 15.8572 107.067 15.8596 107.019 15.8634C104.802 15.9933 102.105 18.8947 102.105 21.814C102.105 23.3731 103.278 24.3143 104.473 24.3143C108.531 24.3143 110.167 20.6159 109.987 20.475Z" fill="white"/>
<path fill-rule="evenodd" clip-rule="evenodd" d="M37.277 16.5261C37.8499 16.6289 38.2337 17.2151 38.3144 17.5882C38.3447 17.7285 38.3751 17.84 38.4053 17.9287C38.2047 17.881 38.0181 17.8532 37.9328 17.8649C37.8375 17.878 37.7092 18.0109 37.6677 18.1436C36.3558 22.3387 35.0563 22.8615 34.831 22.8615C34.3037 22.8615 34.1371 21.561 34.1371 21.1007C34.1371 18.4504 36.2767 16.3465 37.277 16.5261ZM34.4119 23.7858C35.7346 23.7858 37.0592 21.8109 37.2744 21.3512C37.224 21.4589 37.1773 22.4465 37.2666 22.7882C37.4615 23.5342 37.7713 23.6732 38.0352 23.6975C38.2991 23.722 39.3697 23.7813 39.4739 23.5432C39.4258 23.4457 38.8937 22.9936 38.9111 22.1291C38.9308 21.1534 39.0611 19.7476 39.1519 19.2199C39.2059 18.9065 39.216 18.461 39.118 18.2311C39.0929 18.172 38.9612 18.1044 38.7933 18.0434C38.8891 17.3029 38.2773 15.3286 37.009 15.3286C34.5482 15.3286 32.1055 17.5913 32.1055 21.2487C32.1055 23.0147 33.3157 23.7858 34.4119 23.7858Z" fill="white"/>
<path fill-rule="evenodd" clip-rule="evenodd" d="M84.3205 34.7281C83.7915 34.7281 83.153 33.8399 82.5129 32.3463C84.1033 32.9711 84.9211 33.6004 84.9211 34.0901C84.9211 34.4961 84.5918 34.7281 84.3205 34.7281ZM81.9783 30.9582C80.6086 27.0353 79.3738 20.6335 79.3738 14.5989C79.3738 7.17535 81.6708 1.61765 81.6708 1.61765C81.8073 0.87498 81.8191 0.734655 81.1265 0.471399C80.9318 0.397523 79.9201 0 79.5469 0C79.1738 0 79.0842 0.242637 78.828 0.659216C78.6393 0.966153 75.0434 8.67554 73.189 13.665C72.5669 12.0645 70.6393 7.62886 70.1481 5.4975C70.0479 5.06275 67.8323 4.54581 67.8102 4.95448C67.4747 11.1577 63.3978 21.9076 62.9804 22.9959C62.8265 23.3977 62.9225 23.9191 63.2533 24.1209C63.4432 24.2367 64.2284 24.4378 64.3404 24.4631C64.7625 24.5582 64.9147 24.2271 65.1552 23.4621C65.4105 22.6502 65.7197 21.6629 65.9693 20.972C66.6173 19.1768 68.4714 13.6674 69.2015 10.1264C69.1419 10.4157 71.7764 16.4535 72.7866 17.665C72.9652 17.8792 73.3627 17.9656 73.5432 17.5749C73.7239 17.1845 76.9416 8.85554 78.0494 6.41362C78.0494 6.41362 77.3033 9.47048 77.3033 15.9193C77.3033 20.5742 78.5229 26.2462 80.138 30.3399C75.0736 28.8489 67.1908 27.9875 58.9419 27.9875C42.5501 27.9875 29.4736 32.7229 29.4736 34.0936C29.4736 34.8599 30.578 36.4138 30.9302 36.7996C31.2824 37.1856 31.7583 36.9325 32.2254 36.7186C41.3444 32.5446 51.3654 29.8045 63.3864 29.8045C71.2794 29.8045 77.1404 30.701 80.7391 31.7497C81.8708 34.1979 83.134 35.8066 84.2852 35.8066C85.1436 35.8066 85.7894 35.0129 85.7894 34.2541C85.7894 32.9948 84.375 31.8827 81.9783 30.9582Z" fill="white"/>
<path fill-rule="evenodd" clip-rule="evenodd" d="M19.5107 3.17139C12.1079 3.17139 0 12.922 0 25.8063C0 32.135 2.94018 35.4142 7.50951 35.4142C14.0609 35.4142 18.7026 29.0388 18.8855 28.6758C19.0888 28.2725 19.1802 28.0247 18.6587 27.5292C18.3299 27.2167 17.6014 26.8702 17.177 26.8012C16.9558 26.7651 16.7699 26.8664 16.6309 27.0637C16.4919 27.2611 13.149 33.3081 7.45681 33.3081C4.76053 33.3081 3.15846 29.9464 3.15846 26.0077C3.15846 16.4781 13.8144 4.87964 19.1796 4.87964C21.1233 4.87964 20.9971 7.40288 17.6062 11.9286C17.2872 12.3544 19.3664 13.7976 19.7031 13.3263C19.9679 12.9556 22.6316 8.85644 22.6316 6.71078C22.6316 4.94599 21.5962 3.17139 19.5107 3.17139Z" fill="white"/>
<path fill-rule="evenodd" clip-rule="evenodd" d="M42.1655 23.7857C42.4938 23.7857 42.6963 23.8022 42.9411 23.1838C43.6071 21.5015 45.0396 17.9087 45.9981 16.5845C46.0648 18.118 46.2635 19.0004 46.4321 19.5744C46.8677 21.0576 48.4212 20.9177 48.4212 20.7443C48.4212 20.5708 47.9773 20.3454 47.8459 19.5744C47.5448 17.8101 47.9849 16.2231 47.6607 15.8428C47.3599 15.49 46.3336 15.1676 45.996 15.4168C45.6585 15.6661 44.7369 17.1436 43.9642 19.059C44.3978 17.2597 44.4341 16.2694 44.3783 15.8253C44.3224 15.3808 43.9939 15.3331 43.5803 15.3756C43.1668 15.4181 42.3121 15.6425 42.3121 15.9996C42.3121 17.9482 41.0527 22.5428 41.0527 23.1892C41.0527 23.5584 41.3185 23.7857 42.1655 23.7857Z" fill="white"/>
<path fill-rule="evenodd" clip-rule="evenodd" d="M57.6317 13.743C58.3585 13.743 58.9475 13.1513 58.9475 12.4215C58.9475 11.6917 58.3585 11.1001 57.6317 11.1001C56.905 11.1001 56.3159 11.6917 56.3159 12.4215C56.3159 13.1513 56.905 13.743 57.6317 13.743Z" fill="white"/>
<path fill-rule="evenodd" clip-rule="evenodd" d="M86.88 17.8648C86.7848 17.8779 86.6564 18.0108 86.6149 18.1435C85.3029 22.3387 84.0036 22.8614 83.7782 22.8614C83.251 22.8614 83.0844 21.5609 83.0844 21.1007C83.0844 18.4503 85.224 16.3464 86.2242 16.526C86.7972 16.6288 87.181 17.215 87.2616 17.5881C87.292 17.7284 87.3224 17.8399 87.3525 17.9287C87.152 17.881 86.9654 17.8532 86.88 17.8648ZM88.0992 19.22C88.1531 18.9064 88.1632 18.4609 88.0653 18.2311C88.04 18.1719 87.9085 18.1045 87.7408 18.0434C87.8404 17.303 87.352 15.3286 85.9562 15.3286C83.4955 15.3286 81.0527 17.5912 81.0527 21.2488C81.0527 23.0147 82.2629 23.7858 83.3591 23.7858C84.6818 23.7858 86.0065 21.8109 86.2218 21.3512C86.1713 21.4589 86.1246 22.4465 86.2139 22.7882C86.4088 23.5343 86.7185 23.6732 86.9824 23.6975C87.2464 23.722 88.317 23.7813 88.4212 23.5433C88.3731 23.4457 87.8409 22.9936 87.8583 22.1291C87.8781 21.1535 88.0084 19.7476 88.0992 19.22Z" fill="white"/>
<path fill-rule="evenodd" clip-rule="evenodd" d="M96.6079 15.8428C96.3071 15.4901 95.2807 15.1676 94.9433 15.4168C94.6057 15.666 93.6842 17.1435 92.9115 19.059C93.3452 17.2597 93.3815 16.2694 93.3255 15.8253C93.2698 15.3808 92.9411 15.3331 92.5276 15.3756C92.1141 15.4182 91.2594 15.6426 91.2594 15.9996C91.2594 17.9482 90 22.5428 90 23.1892C90 23.5584 90.2658 23.7857 91.1128 23.7857C91.4411 23.7857 91.6436 23.8022 91.8885 23.1838C92.5545 21.5015 93.9869 17.9087 94.9453 16.5845C95.0121 18.1181 95.2107 19.0004 95.3793 19.5744C95.815 21.0576 97.3684 20.9177 97.3684 20.7442C97.3684 20.5708 96.9246 20.3454 96.793 19.5744C96.492 17.8102 96.9321 16.2231 96.6079 15.8428Z" fill="white"/>
<path fill-rule="evenodd" clip-rule="evenodd" d="M99.1764 15.3291C98.7286 15.3087 98.6358 15.8914 98.5911 16.1774C98.1985 18.6902 97.3687 22.4043 97.3687 23.2513C97.3687 23.9647 97.8014 24.3143 98.3012 24.3143C99.3887 24.3143 99.3825 23.963 99.4326 23.6003C99.9937 19.5341 100.527 18.5342 100.527 16.9525C100.527 16.2686 99.6241 15.3496 99.1764 15.3291Z" fill="white"/>
<path fill-rule="evenodd" clip-rule="evenodd" d="M100.789 11.6287C100.063 11.6287 99.4736 12.2203 99.4736 12.9501C99.4736 13.68 100.063 14.2715 100.789 14.2715C101.516 14.2715 102.105 13.68 102.105 12.9501C102.105 12.2203 101.516 11.6287 100.789 11.6287Z" fill="white"/>
</svg>
