<svg width="310" height="92" viewBox="0 0 310 92" fill="none" xmlns="http://www.w3.org/2000/svg">
<g clip-path="url(#clip0_750_948)">
<path d="M6 77.5303C6 58.5757 16.1222 36.5584 29.3976 23.2451C34.2839 18.3449 41.3269 14.788 46.9775 20.4547C49.6555 23.1404 51.1261 27.6924 52.5423 31.1088C59.0641 46.8411 66.7833 65.6924 80.1136 76.8327C93.4701 87.9949 109.149 87.5082 122.293 76.6424C141.861 60.4655 157.254 40.0212 176.866 23.7524C186.194 16.0151 203.019 3.0988 215.82 9.92746C221.884 13.1624 224.824 20.3267 228.214 25.9086C232.688 33.2759 237.529 40.4324 242.126 47.7241C246.147 54.1003 254.587 68.4286 264.512 63.4516C280.23 55.5702 287.05 33.4929 299.04 21.4694C309.346 11.1338 318.023 11.4784 328.698 20.5181C332.736 23.938 336.797 28.8908 342.041 30.4747C348.574 32.4481 354.834 27.1175 360 23.8793" stroke="white" stroke-width="3" stroke-linecap="round" stroke-linejoin="round"/>
</g>
<defs>
<clipPath id="clip0_750_948">
<rect width="310" height="92" fill="white"/>
</clipPath>
</defs>
</svg>
