<svg width="31" height="22" viewBox="0 0 31 22" fill="none" xmlns="http://www.w3.org/2000/svg">
<path fill-rule="evenodd" clip-rule="evenodd" d="M12.3281 15.5181V6.30664L20.4304 10.9126L12.3281 15.5181ZM30.3522 3.40789C29.9957 2.06642 28.9452 1.01006 27.6115 0.651552C25.194 0 15.5 0 15.5 0C15.5 0 5.80598 0 3.38851 0.651552C2.05481 1.01006 1.00433 2.06642 0.64783 3.40789C0 5.83915 0 10.912 0 10.912C0 10.912 0 15.9847 0.64783 18.4161C1.00433 19.7576 2.05481 20.8139 3.38851 21.1726C5.80598 21.824 15.5 21.824 15.5 21.824C15.5 21.824 25.194 21.824 27.6115 21.1726C28.9452 20.8139 29.9957 19.7576 30.3522 18.4161C31 15.9847 31 10.912 31 10.912C31 10.912 31 5.83915 30.3522 3.40789Z" fill="white"/>
</svg>
